<?xml version="1.0" encoding="iso-8859-1"?>
<!-- Generator: Adobe Illustrator 16.0.0, SVG Export Plug-In . SVG Version: 6.00 Build 0)  -->
<!DOCTYPE svg PUBLIC "-//W3C//DTD SVG 1.1//EN" "http://www.w3.org/Graphics/SVG/1.1/DTD/svg11.dtd">
<svg version="1.1" id="Capa_1" xmlns="http://www.w3.org/2000/svg" xmlns:xlink="http://www.w3.org/1999/xlink" x="0px" y="0px"
	 width="612px" height="612px" viewBox="0 0 612 612" style="enable-background:new 0 0 612 612;" xml:space="preserve">
<g>
	<g id="_x31__34_">
		<g>
			<path fill="#f3c843" d="M306,0C136.992,0,0,137.012,0,306c0,169.008,136.992,306,306,306s306-136.992,306-306C612,137.012,475.008,0,306,0z
				 M392.751,322.811l-146.44,146.44c-7.478,7.478-19.584,7.478-27.043,0c-7.478-7.478-7.478-19.584,0-27.043L355.457,306
				L219.268,169.811c-7.478-7.478-7.478-19.584,0-27.043c7.478-7.478,19.584-7.478,27.043,0l146.44,146.44
				c4.59,4.59,6.005,10.863,4.973,16.812C398.756,311.948,397.322,318.221,392.751,322.811z"/>
		</g>
	</g>
</g>
<g>
</g>
<g>
</g>
<g>
</g>
<g>
</g>
<g>
</g>
<g>
</g>
<g>
</g>
<g>
</g>
<g>
</g>
<g>
</g>
<g>
</g>
<g>
</g>
<g>
</g>
<g>
</g>
<g>
</g>
</svg>
