<svg width="1440" height="389" xmlns="http://www.w3.org/2000/svg">
 <!-- Generator: Sketch 55.2 (78181) - https://sketchapp.com -->
 <title>BigImage</title>
 <desc>Created with Sketch.</desc>
 <defs>
  <path id="path-1" d="m365.88211,599c163.54139,0 296.11789,-133.41915 296.11789,-298c0,-164.58086 -135.9586,-301 -299.5,-301c-163.5414,0 -292.73579,136.41914 -292.73579,301c0,164.58085 132.5765,298 296.1179,298z"/>
  <linearGradient id="linearGradient-3" y2="51.3813219%" x2="33.768713%" y1="47.9721258%" x1="87.7981256%">
   <stop offset="0%" stop-color="#F3C843"/>
   <stop offset="50.5191752%" stop-color="#BEC591"/>
   <stop offset="100%" stop-color="#89C3DF"/>
  </linearGradient>
  <radialGradient id="radialGradient-4" r="97.6177687%" fy="50%" fx="37.8392435%" cy="50%" cx="37.8392435%">
   <stop offset="0%" stop-color="#FFFFFF"/>
   <stop offset="100%" stop-color="#FF6584"/>
  </radialGradient>
 </defs>
 <g>
  <title>background</title>
  <rect fill="none" id="canvas_background" height="391" width="1442" y="-1" x="-1"/>
 </g>
 <g>
  <title>Layer 1</title>
  <g fill-rule="evenodd" fill="none" id="Page-1">
   <g id="Desktop-HD">
    <g id="BigImage">
     <g id="FirstImageArea">
      <path opacity="0.623977" fill="url(#linearGradient-3)" id="Rectangle" d="m0,94c269.04033,83.66667 523.7274,125.5 764.0612,125.5c240.33379,0 465.64673,-41.83333 675.9388,-125.5l0,290l-1440,0l0,-290z"/>
      <g fill-rule="nonzero" id="1SearchGirl">
       <rect height="162" width="5" y="161.901639" x="1364" fill="#3F3D56" id="Rectangle"/>
       <path fill="#3F3D56" id="Path" d="m1405.99872,183.21711c0.26065,56.60918 -39.52679,102.68453 -39.52679,102.68453c0,0 -40.21001,-45.70628 -40.47065,-102.31547c-0.26065,-56.60919 39.52679,-102.68453 39.52679,-102.68453c0,0 40.21003,45.70628 40.47065,102.31547z"/>
       <rect height="83" width="2" y="238.901639" x="1284" fill="#3F3D56" id="Rectangle"/>
       <path fill="#3F3D56" id="Path" d="m1305.99935,248.80622c0.13358,29.27109 -20.25748,53.09542 -20.25748,53.09542c0,0 -20.60764,-23.63349 -20.74122,-52.90458c-0.13358,-29.2711 20.25748,-53.09542 20.25748,-53.09542c0,0 20.60764,23.6335 20.74122,52.90458z"/>
       <ellipse ry="8.5" rx="57.5" cy="324.401639" cx="1328.5" fill="#3F3D56" id="Oval"/>
       <path fill="#2F2E41" id="Path" d="m1333.15072,119.61683c-4.94409,-8.2972 -14.72558,-8.68389 -14.72558,-8.68389c0,0 -9.5315,-1.2106 -15.64589,11.42617c-5.69911,11.77849 -13.56461,23.15087 -1.26628,25.90814l2.22143,-6.86711l1.37572,7.37836c1.75104,0.12508 3.50767,0.1549 5.26199,0.08932c13.17051,-0.42233 25.71343,0.12356 25.30957,-4.57045c-0.53687,-6.24005 2.22625,-16.69696 -2.53096,-24.68054z"/>
       <path fill="#FBBEBE" id="Path" d="m1315,135.1609c0,0 6.42857,8.55555 2.57143,15.48148c-3.85714,6.92593 9,14.25926 9,14.25926l9.42857,-19.55556c0,0 -11.14286,-6.92592 -8.14286,-13.44444l-12.85714,3.25926z"/>
       <circle r="11" cy="129.901639" cx="1320" fill="#FBBEBE" id="Oval"/>
       <path fill="#FBBEBE" id="Path" d="m1282,141.69178l8.79696,-11.41213c0,0 3.09747,-11.96213 7.58365,-11.35571c4.48618,0.60642 -1.77194,14.34561 -1.77194,14.34561l-8.74084,12.63209l-5.86783,-4.20986z"/>
       <polygon points="1327,296.12890625 1329.8636474609375,311.2652893066406 1336,312.9016418457031 1334.3636474609375,294.9016418457031 " fill="#FBBEBE" id="Path"/>
       <polygon points="1390,279.2616271972656 1401.4893493652344,294.8016357421875 1406.1702270507812,296.9016418457031 1410,290.6016540527344 1398.5106506347656,275.9016418457031 " fill="#FBBEBE" id="Path"/>
       <path fill="#575A89" id="Path" d="m1325.3837,159.74374l-6.79197,-9.24604c0,0 -13.15916,2.50919 -14.38066,3.77235c-1.22149,1.26316 3.25733,24.42106 3.25733,24.42106c0,0 0.81433,6.31579 4.47883,9.68421l3.66449,2.52632l30.13028,-6.31579l1.13292,-13.8635c0.83441,-10.21063 -2.53359,-20.31175 -9.27623,-27.82071l0,0l-5.24258,0.74115l-6.97241,16.10095z"/>
       <path fill="#575A89" id="Path" d="m1305.49384,155.08721l-2.08847,-0.82662l-9.60694,-0.82662c0,0 -3.34155,-0.82661 -2.50616,-2.47985c0.83539,-1.65323 1.67077,-2.06654 0,-2.47985c-1.67077,-0.4133 -2.08847,-0.82661 -1.67077,-2.06654c0.41769,-1.23992 2.92385,-3.71977 2.92385,-3.71977l-7.10078,-5.78632c0,0 -0.38432,0.26899 -1.00552,0.76665c-3.52551,2.82445 -14.68074,13.01484 -6.51296,23.20523c9.60694,11.98595 20.88466,19.01219 30.07391,16.53234l-2.50616,-22.31865z"/>
       <path fill="#2F2E41" id="Path" d="m1314.72965,189.07385l0,5.8411c0,0 -3.71536,7.09277 -2.4769,13.76831c1.23845,6.67555 1.65127,10.01332 1.65127,10.01332c0.13474,5.67743 1.10875,11.30259 2.88972,16.68886c2.88972,8.34442 -6.60508,63.00044 5.36663,63.83488c11.9717,0.83444 18.57678,1.66889 22.29214,-2.50333c3.71536,-4.17221 -6.19226,-75.93431 -6.19226,-75.93431c0,0 33.85103,71.34487 40.86893,68.42432c7.0179,-2.92055 24.76905,-9.59609 22.70496,-13.35108c-2.06408,-3.75499 -54.07909,-87.19929 -54.07909,-87.19929l-1.65127,-3.75499l-31.37413,4.17221z"/>
       <path fill="#2F2E41" id="Path" d="m1334.14851,308.93487c0,0 -6.46864,-0.40704 -6.46864,1.62814c0,2.03517 -3.23433,8.95477 -3.23433,8.95477c0,0 -2.42574,8.1407 4.04291,7.32663c6.46865,-0.81407 10.51155,-8.1407 10.51155,-8.1407l-1.61716,-7.73367l-3.23433,-2.03517z"/>
       <path fill="#2F2E41" id="Path" d="m1404.38181,293.0775c0,0 -5.77309,-3.73981 -5.36073,-1.2466c0.41237,2.4932 0.82473,9.14175 3.71128,9.55729c2.88654,0.41553 11.54618,2.90873 11.95855,3.7398c0.41236,0.83107 10.30909,4.15534 10.30909,-1.2466c0,-5.40194 -6.18546,-9.55729 -6.18546,-9.55729l-7.01018,-5.40194c0,0 -4.536,-0.41554 -5.36073,2.49321c-0.82473,2.90873 -2.06182,1.66213 -2.06182,1.66213z"/>
       <circle r="7" cy="112.901639" cx="1320" fill="#2F2E41" id="Oval"/>
       <path fill="#2F2E41" id="Path" d="m1311.33333,109.90164c0.00033,-3.58053 2.44515,-6.58363 5.66667,-6.96065c-0.22145,-0.02593 -0.44398,-0.03907 -0.66667,-0.03935c-3.4978,0 -6.33333,3.13401 -6.33333,7c0,3.86599 2.83553,7 6.33333,7c0.22269,-0.00029 0.44522,-0.01342 0.66667,-0.03935c-3.22152,-0.37703 -5.66634,-3.38012 -5.66667,-6.96065z"/>
       <polygon points="1330.5611267089844,119.86956787109375 1321.3510131835938,114.90164184570312 1308.631591796875,116.93414306640625 1306,128.90164184570312 1312.5509338378906,128.64202880859375 1314.381103515625,124.24554443359375 1314.381103515625,128.5697021484375 1317.4036560058594,128.45016479492188 1319.1578979492188,121.45016479492188 1320.2544555664062,128.90164184570312 1331,128.6759033203125 " fill="#2F2E41" id="Path"/>
       <path fill="#FBBEBE" id="Path" d="m1330,187.97902l-14.38571,0.37205c0,0 -12.27505,2.28486 -11.58636,-2.45466c0.6887,-4.73953 12.66385,-3.08185 12.66385,-3.08185l13.1082,-1.91292l0.20002,7.07738z"/>
       <path fill="#575A89" id="Path" d="m1341.11897,141.93763c1.47904,-0.23357 2.90115,0.69007 3.35283,2.17764c2.78843,9.16575 11.37879,39.83833 2.84374,44.04644c-10.05278,4.95643 -17.38891,4.73851 -17.38891,4.73851l-3.92663,-10.08472l3.57455,-3.49929l3.81634,-25.59625l1.82869,-10.85014l5.89939,-0.93219z"/>
       <polygon points="1339,158.90164184570312 1337.3589782714844,175.62890625 1323,181.90164184570312 1339,178.13800048828125 " opacity="0.4" fill="#000000" id="Path"/>
       <path fill="#3F3D56" id="Path" d="m1261.0293,103.90164l0,0c4.5708,1.2134 8.52539,4.09142 11.09033,8.07117l1.32619,2.05771l0.06674,0.08511l23.26734,6.82077c0.8873,0.26011 1.4032,1.18425 1.15994,2.07782l-1.80638,6.63538c-0.11884,0.43654 -0.40658,0.80756 -0.79943,1.03082c-0.39285,0.22325 -0.85836,0.2803 -1.29334,0.15849l-23.27318,-6.51712l-0.00051,0.00065l-2.33742,0.88532c-4.30405,1.63022 -9.02498,1.79096 -13.42958,0.45726l0,0l6.0293,-21.76338z"/>
       <ellipse ry="2.73523" rx="1.458979" cy="122.987611" cx="1282.770896" fill="#575A89" id="Oval"/>
       <circle r="1" cy="122.901639" cx="1285" fill="#3F3D56" id="Oval"/>
       <ellipse ry="5.288128" rx="11.695365" cy="115.282704" cx="1257.205418" fill="#007EBA" id="Oval"/>
       <path opacity="0.4" fill="#000000" id="Path" d="m1261.11482,116.83811c1.902,-6.06007 1.3847,-11.70786 -1.11825,-12.93647c0.15063,0.01942 0.29917,0.05338 0.44366,0.10143c2.75281,0.92223 3.38424,6.76822 1.41034,13.05747c-1.97391,6.28924 -5.80567,10.64001 -8.55849,9.71781c-0.0998,-0.03374 -0.19737,-0.07414 -0.29208,-0.12098c2.70776,0.35622 6.24487,-3.86128 8.11482,-9.81926z"/>
       <path fill="#007EBA" id="Path" d="m1260,104.39904l-54.11526,-42.24328c-9.56937,-7.52392 -18.75228,-15.53277 -27.51313,-23.99551c-15.42599,-14.79723 -36.36698,-26.62786 -60.74827,-32.9266c-59.23579,-15.30316 -106.16259,11.8312 -127.50624,51.67373c-32.61538,60.88366 -57.61073,159.6813 87.00558,107.09139c31.62741,-11.50137 63.64171,-12.7239 87.91636,-18.78217l87.89726,-18.23768l7.0637,-22.57988z"/>
       <circle r="3" cy="29.901639" cx="1099" fill="#F2F2F2" id="Oval"/>
       <polygon points="1155,36.8126220703125 1154.0890045166016,36.8126220703125 1154.0890045166016,35.901641845703125 1153.9109954833984,35.901641845703125 1153.9109954833984,36.8126220703125 1153,36.8126220703125 1153,36.990631103515625 1153.9109954833984,36.990631103515625 1153.9109954833984,37.901641845703125 1154.0890045166016,37.901641845703125 1154.0890045166016,36.990631103515625 1155,36.990631103515625 " fill="#F2F2F2" id="Path"/>
       <polygon points="1231,99.8126220703125 1230.0889892578125,99.8126220703125 1230.0889892578125,98.90164184570312 1229.9110107421875,98.90164184570312 1229.9110107421875,99.8126220703125 1229,99.8126220703125 1229,99.99063110351562 1229.9110107421875,99.99063110351562 1229.9110107421875,100.90164184570312 1230.0889892578125,100.90164184570312 1230.0889892578125,99.99063110351562 1231,99.99063110351562 " fill="#F2F2F2" id="Path"/>
       <polygon points="1225,119.8126220703125 1224.0889892578125,119.8126220703125 1224.0889892578125,118.90164184570312 1223.9110107421875,118.90164184570312 1223.9110107421875,119.8126220703125 1223,119.8126220703125 1223,119.99063110351562 1223.9110107421875,119.99063110351562 1223.9110107421875,120.90164184570312 1224.0889892578125,120.90164184570312 1224.0889892578125,119.99063110351562 1225,119.99063110351562 " fill="#F2F2F2" id="Path"/>
       <polygon points="993,136.8126220703125 992.0890045166016,136.8126220703125 992.0890045166016,135.90164184570312 991.9109954833984,135.90164184570312 991.9109954833984,136.8126220703125 991,136.8126220703125 991,136.99063110351562 991.9109954833984,136.99063110351562 991.9109954833984,137.90164184570312 992.0890045166016,137.90164184570312 992.0890045166016,136.99063110351562 993,136.99063110351562 " fill="#F2F2F2" id="Path"/>
       <polygon points="1026,45.8126220703125 1025.0890045166016,45.8126220703125 1025.0890045166016,44.901641845703125 1024.9109954833984,44.901641845703125 1024.9109954833984,45.8126220703125 1024,45.8126220703125 1024,45.990631103515625 1024.9109954833984,45.990631103515625 1024.9109954833984,46.901641845703125 1025.0890045166016,46.901641845703125 1025.0890045166016,45.990631103515625 1026,45.990631103515625 " fill="#F2F2F2" id="Path"/>
       <polygon points="1155,122.8126220703125 1154.0890045166016,122.8126220703125 1154.0890045166016,121.90164184570312 1153.9109954833984,121.90164184570312 1153.9109954833984,122.8126220703125 1153,122.8126220703125 1153,122.99063110351562 1153.9109954833984,122.99063110351562 1153.9109954833984,123.90164184570312 1154.0890045166016,123.90164184570312 1154.0890045166016,122.99063110351562 1155,122.99063110351562 " fill="#F2F2F2" id="Path"/>
       <polygon points="1076,18.812652587890625 1075.088996887207,18.812652587890625 1075.088996887207,17.901641845703125 1074.911003112793,17.901641845703125 1074.911003112793,18.812652587890625 1074,18.812652587890625 1074,18.990631103515625 1074.911003112793,18.990631103515625 1074.911003112793,19.901641845703125 1075.088996887207,19.901641845703125 1075.088996887207,18.990631103515625 1076,18.990631103515625 " fill="#F2F2F2" id="Path"/>
       <path fill="#E6E6E6" id="Path" d="m1076.14358,78.90164l-1.14358,0.14872c0.35768,1.92918 0.6398,3.90085 0.84635,5.85128l1.15365,-0.08499c-0.20656,-1.97591 -0.49371,-3.96457 -0.85642,-5.91501z"/>
       <path fill="#E6E6E6" id="Path" d="m1073.76125,67.90164l-0.76125,0.28571c0.46021,1.87634 0.87197,3.79958 1.22145,5.71429l0.77855,-0.21748c-0.3564,-1.93603 -0.77508,-3.88059 -1.23875,-5.78252z"/>
       <path fill="#E6E6E6" id="Path" d="m1069.55733,56.90164l-0.55733,0.41891c0.512,1.82836 0.992,3.70473 1.42667,5.58109l0.57333,-0.35346c-0.43999,-1.89819 -0.92265,-3.80073 -1.44267,-5.64654z"/>
       <path fill="#E6E6E6" id="Path" d="m1063.85651,46.90164l-0.85651,0.56079c1.09051,1.76897 2.13687,3.60182 3.10817,5.43921l0.89183,-0.50152c-0.98012,-1.86016 -2.03974,-3.71126 -3.14349,-5.49848z"/>
       <path fill="#E6E6E6" id="Path" d="m1055.83652,36.90164l-0.83652,0.72389c1.42447,1.7004 2.81071,3.47854 4.12046,5.27611l0.87954,-0.66559c-1.31936,-1.81701 -2.71993,-3.61458 -4.16348,-5.33441z"/>
       <path fill="#E6E6E6" id="Path" d="m1048.65553,27.90164l-0.65553,0.75664c1.47386,1.3584 2.91774,2.78761 4.29306,4.24336l0.70694,-0.71239c-1.39243,-1.47346 -2.85347,-2.91594 -4.34447,-4.28761z"/>
       <path fill="#E6E6E6" id="Path" d="m1038.61186,21.90164l-0.61186,0.94621c1.81186,1.27989 3.60474,2.64443 5.32648,4.05379l0.67352,-0.90142c-1.74546,-1.42428 -3.55732,-2.80374 -5.38814,-4.09858z"/>
       <path fill="#E6E6E6" id="Path" d="m1030,15.90164l0,0.8c1.1616,0.38461 2.31349,0.78769 3.44107,1.2l0.55893,-0.61231c-1.31229,-0.48001 -2.64562,-0.94257 -4,-1.38769z"/>
       <path fill="#E6E6E6" id="Path" d="m1075,91.91369l0.98533,-0.01205c0.0181,0.66928 0.01945,1.34212 0.00404,2l-0.98525,-0.01035c0.01498,-0.65039 0.01369,-1.31577 -0.00412,-1.9776z"/>
       <path fill="#E6E6E6" id="Path" d="m1020.14358,161.90164l-1.14358,0.14872c0.35768,1.92918 0.6398,3.90085 0.84635,5.85128l1.15365,-0.08499c-0.20656,-1.97591 -0.49371,-3.96457 -0.85642,-5.91501z"/>
       <path fill="#E6E6E6" id="Path" d="m1017.76125,148.90164l-0.76125,0.28571c0.46021,1.87634 0.87197,3.79958 1.22145,5.71429l0.77855,-0.21748c-0.3564,-1.93603 -0.77506,-3.88059 -1.23875,-5.78252z"/>
       <path fill="#E6E6E6" id="Path" d="m1013.55733,138.90164l-0.55733,0.41891c0.512,1.82836 0.992,3.70473 1.42667,5.58109l0.57333,-0.35346c-0.44,-1.89819 -0.92267,-3.80073 -1.44267,-5.64654z"/>
       <path fill="#E6E6E6" id="Path" d="m1006.85651,128.90164l-0.85651,0.56079c1.09051,1.76897 2.13687,3.60182 3.10817,5.43921l0.89183,-0.50152c-0.9801,-1.86017 -2.03974,-3.71126 -3.14349,-5.49848z"/>
       <path fill="#E6E6E6" id="Path" d="m1001.83652,118.90164l-0.83652,0.72389c1.42447,1.7004 2.81071,3.47854 4.12046,5.27611l0.87954,-0.66559c-1.31936,-1.81701 -2.71993,-3.61458 -4.16348,-5.33441z"/>
       <path fill="#E6E6E6" id="Path" d="m992.65553,109.90164l-0.65553,0.75664c1.47386,1.3584 2.91774,2.78761 4.29306,4.24336l0.70694,-0.71239c-1.39243,-1.47346 -2.85347,-2.91594 -4.34447,-4.28761z"/>
       <path fill="#E6E6E6" id="Path" d="m984.61186,103.90164l-0.61186,0.94621c1.81183,1.27989 3.60474,2.64443 5.32648,4.05379l0.67352,-0.90143c-1.74546,-1.42427 -3.55732,-2.80373 -5.38814,-4.09857z"/>
       <path fill="#E6E6E6" id="Path" d="m975,98.90164l0,0.8c1.1616,0.38461 2.31349,0.78769 3.44107,1.2l0.55893,-0.61231c-1.31229,-0.48001 -2.64562,-0.94257 -4,-1.38769z"/>
       <path fill="#E6E6E6" id="Path" d="m1021,173.91369l0.98533,-0.01205c0.01811,0.66928 0.01945,1.34212 0.00404,2l-0.98525,-0.01035c0.01498,-0.65039 0.01369,-1.31577 -0.00412,-1.9776z"/>
       <path fill="#E6E6E6" id="Path" d="m1212.14358,120.90164l-1.14358,0.14872c0.35768,1.92918 0.6398,3.90085 0.84635,5.85128l1.15365,-0.08499c-0.20656,-1.97591 -0.49371,-3.96457 -0.85642,-5.91501z"/>
       <path fill="#E6E6E6" id="Path" d="m1208.76125,107.90164l-0.76125,0.28571c0.46021,1.87634 0.87197,3.79958 1.22145,5.71429l0.77855,-0.21748c-0.3564,-1.93603 -0.77506,-3.88059 -1.23875,-5.78252z"/>
       <path fill="#E6E6E6" id="Path" d="m1205.55733,97.90164l-0.55733,0.41891c0.512,1.82836 0.992,3.70473 1.42667,5.58109l0.57333,-0.35345c-0.44,-1.8982 -0.92267,-3.80074 -1.44267,-5.64655z"/>
       <path fill="#E6E6E6" id="Path" d="m1199.85651,87.90164l-0.85651,0.56079c1.09051,1.76897 2.13687,3.60182 3.10817,5.43921l0.89183,-0.50152c-0.9801,-1.86016 -2.03974,-3.71126 -3.14349,-5.49848z"/>
       <path fill="#E6E6E6" id="Path" d="m1192.83652,76.90164l-0.83652,0.72389c1.42447,1.7004 2.81071,3.47854 4.12046,5.27611l0.87954,-0.66559c-1.31936,-1.81701 -2.71993,-3.61458 -4.16348,-5.33441z"/>
       <path fill="#E6E6E6" id="Path" d="m1184.65553,68.90164l-0.65553,0.75664c1.47386,1.3584 2.91774,2.78761 4.29306,4.24336l0.70694,-0.71239c-1.39243,-1.47346 -2.85348,-2.91594 -4.34447,-4.28761z"/>
       <path fill="#E6E6E6" id="Path" d="m1175.61186,61.90164l-0.61186,0.94621c1.81186,1.27989 3.60474,2.64443 5.32648,4.05379l0.67352,-0.90143c-1.74546,-1.42427 -3.55732,-2.80373 -5.38814,-4.09857z"/>
       <path fill="#E6E6E6" id="Path" d="m1167,57.90164l0,0.8c1.1616,0.38461 2.31349,0.78769 3.44107,1.2l0.55893,-0.61231c-1.31229,-0.48001 -2.64562,-0.94257 -4,-1.38769z"/>
       <path fill="#E6E6E6" id="Path" d="m1213,131.91369l0.98533,-0.01205c0.0181,0.66928 0.01945,1.34212 0.00404,2l-0.98525,-0.01035c0.01498,-0.65039 0.01369,-1.31577 -0.00412,-1.9776z"/>
       <polygon points="1026,84.81298828125 1025.0892028808594,84.81298828125 1025.0892028808594,83.90164184570312 1024.9113388061523,83.90164184570312 1024.9113388061523,84.81298828125 1024,84.81298828125 1024,84.99029541015625 1024.9113388061523,84.99029541015625 1024.9113388061523,85.90164184570312 1025.0892028808594,85.90164184570312 1025.0892028808594,84.99029541015625 1026,84.99029541015625 " fill="#F2F2F2" id="Path"/>
       <polygon points="1019,126.81298828125 1018.0892028808594,126.81298828125 1018.0892028808594,125.90164184570312 1017.9113388061523,125.90164184570312 1017.9113388061523,126.81298828125 1017,126.81298828125 1017,126.9908447265625 1017.9113388061523,126.9908447265625 1017.9113388061523,127.90164184570312 1018.0892028808594,127.90164184570312 1018.0892028808594,126.9908447265625 1019,126.9908447265625 " fill="#F2F2F2" id="Path"/>
       <polygon points="996,163.81243896484375 995.0886611938477,163.81243896484375 995.0886611938477,162.90164184570312 994.9107971191406,162.90164184570312 994.9107971191406,163.81243896484375 994,163.81243896484375 994,163.99029541015625 994.9107971191406,163.99029541015625 994.9107971191406,164.90164184570312 995.0886611938477,164.90164184570312 995.0886611938477,163.99029541015625 996,163.99029541015625 " fill="#F2F2F2" id="Path"/>
       <path fill="#F3C843" id="Path" d="m1061.71766,116.7191c-14.0625,-21.00362 -10.74727,-49.17897 7.80211,-66.30845c18.54939,-17.12948 46.76984,-18.07583 66.41459,-2.22716c19.64475,15.84867 24.8222,43.73923 12.18471,65.63821c-12.63749,21.89899 -39.29984,31.23873 -62.74772,21.98034c-2.02532,7.26364 -8.67767,12.23603 -16.18371,12.09675c-7.50604,-0.13929 -13.97113,-5.35509 -15.72816,-12.68891c-1.75702,-7.33382 1.63752,-14.93449 8.25818,-18.49078l0,0z"/>
       <path fill="#007EBA" id="Shape" d="m1104.04572,58.90164c11.82124,0 19.95428,6.60833 19.95428,16.10781c0,6.29062 -3.02624,10.64322 -8.85806,14.10624c-5.48506,3.20886 -7.34492,5.5599 -7.34492,9.62656l0,0c0,0.66567 -0.26238,1.30407 -0.72941,1.77476c-0.46703,0.4707 -1.10045,0.73513 -1.76093,0.73513l-6.04329,0c-1.34158,0 -2.44205,-1.07109 -2.48882,-2.42238l-0.01073,-0.30991c-0.53589,-6.54481 1.73378,-10.61145 7.43951,-13.97914c5.32744,-3.20886 7.5656,-5.24219 7.5656,-9.18177c0,-3.93958 -3.7828,-6.83073 -8.47977,-6.83073c-3.57002,0 -6.3953,1.75137 -7.69121,4.61074c-0.92996,1.97647 -2.91528,3.22761 -5.08556,3.20488l0,0c-4.09465,0 -6.79962,-4.38857 -4.88468,-8.03628c3.02916,-5.77027 9.42048,-9.40591 18.41799,-9.40591zm-8.29065,54.45518c0,-3.65364 3.02625,-6.54479 6.746,-6.54479c3.75128,0 6.77751,2.85939 6.77751,6.54479c0,3.6854 -3.02624,6.54482 -6.77751,6.54482c-3.75128,0 -6.746,-2.85939 -6.746,-6.54482l0,0z"/>
      </g>
      <g fill-rule="nonzero" transform="translate(224,228.5) scale(-1,1) translate(-224,-228.5) translate(0,32) " id="1DeskBoy">
       <path fill="#3F3D56" id="Path" d="m72,1.54177c0.47953,-0.52122 0.97619,-1.0399 1.47631,-1.54177l0.52369,0.47877c-0.49389,0.49525 -0.98402,1.00704 -1.45706,1.52123l-0.54294,-0.45823z"/>
       <path fill="#3F3D56" id="Path" d="m186,139.28621c0.55411,-0.41253 1.10918,-0.8452 1.64979,-1.28621l0.35021,0.69628c-0.54805,0.44702 -1.11073,0.88576 -1.67241,1.30372l-0.32759,-0.71379z"/>
       <path fill="#3F3D56" id="Shape" d="m297,235l0,123l156,0l0,-123l-156,0zm135.62906,32.89329l-12.08218,0l0,-12.25382l12.08218,0l0,12.25382z"/>
       <rect height="12" width="11" y="189" x="44" fill="#3F3D56" id="Rectangle"/>
       <polygon points="199.844970703125,268.72747802734375 209.93304443359375,268.72894287109375 209.93496704101562,281.8434753417969 199.84686279296875,281.8420104980469 " fill="#3F3D56" id="Rectangle"/>
       <polygon points="170.08932495117188,39.6942138671875 180.17745971679688,39.6956787109375 180.17935180664062,52.810211181640625 170.09124755859375,52.80877685546875 " fill="#3F3D56" id="Rectangle"/>
       <path fill="#3F3D56" id="Path" d="m309,318.29148c-0.39642,0.57329 -0.81358,1.14806 -1.24004,1.70852l-0.75996,-0.31415c0.42126,-0.55314 0.83295,-1.12031 1.224,-1.68585l0.776,0.29148z"/>
       <path fill="#3F3D56" id="Shape" d="m301,307.34851c-1.38269,2.04658 -2.86723,4.05913 -4.41278,5.98162l-0.94274,-0.75679c1.52454,-1.89704 2.98935,-3.88247 4.35324,-5.90146l1.00228,0.67663zm-9.30637,11.57693c-1.70035,1.78858 -3.49737,3.52808 -5.3405,5.17031l-0.80481,-0.9026c1.81868,-1.61994 3.59132,-3.33584 5.26863,-5.10019l0.87668,0.83248zm-11.09119,9.88014c-1.96906,1.4812 -4.02726,2.90075 -6.1177,4.22006l-0.64572,-1.02234c2.0629,-1.30138 4.09361,-2.70234 6.0363,-4.16354l0.72712,0.96582zm-13.12042,6.85767l0.56054,1.07082c-2.19061,1.14571 -4.4515,2.21324 -6.71941,3.17302l-0.4714,-1.11339c2.23793,-0.94689 4.46862,-2.0001 6.63027,-3.13045zm-13.49453,5.7073l0.37798,1.14822c-2.34467,0.77119 -4.75028,1.45362 -7.1501,2.02833l-0.28187,-1.17577c2.36777,-0.56674 4.74096,-1.24005 7.05399,-2.00078zm-14.24989,3.41016l0.18305,1.19472c-2.44063,0.37361 -4.92807,0.64933 -7.39294,0.81949l-0.08335,-1.20601c2.43182,-0.16773 4.88557,-0.43966 7.29324,-0.8082l0,0zm-83.47199,-143.03377c-1.50343,1.91201 -2.94647,3.91238 -4.28914,5.94593l-1.00924,-0.66602c1.36107,-2.06127 2.82371,-4.08903 4.34759,-6.02685l0.95079,0.74694zm68.84437,144.04444l-0.01643,1.20862c-2.46725,-0.03398 -4.96512,-0.17145 -7.42461,-0.40838l0.11605,-1.20301c2.42658,0.23356 4.89108,0.36925 7.32499,0.40277zm-76.91745,-131.81854c-1.16888,2.13472 -2.26376,4.3452 -3.25391,6.56991l-1.10499,-0.49159c1.00381,-2.25488 2.11356,-4.49518 3.29829,-6.65857l1.06061,0.58025zm62.32565,130.4124l-0.21439,1.18996c-2.42998,-0.43779 -4.87104,-0.98145 -7.2563,-1.61635l0.31098,-1.16787c2.35345,0.62621 4.76222,1.16277 7.15971,1.59426zm-68.28418,-117.0277c-0.80508,2.29873 -1.52435,4.65859 -2.13795,7.01429l-1.17025,-0.30472c0.62205,-2.38735 1.35095,-4.77919 2.16663,-7.10875l1.14157,0.39918zm54.11987,113.25886l-0.40551,1.13852c-2.32489,-0.82752 -4.6445,-1.76188 -6.89415,-2.7771l0.49744,-1.10169c2.21988,1.00168 4.5083,1.9236 6.80222,2.74027zm-57.81433,-99.07909c-0.41884,2.39906 -0.74321,4.84501 -0.96385,7.26931l-1.20446,-0.10936c0.22387,-2.45746 0.55242,-4.93609 0.97691,-7.36761l1.1914,0.20766zm44.45914,93.05112l-0.58626,1.05704c-2.15976,-1.19718 -4.29427,-2.49808 -6.34455,-3.86684l0.67169,-1.00516c2.02256,1.35038 4.12845,2.63372 6.25912,3.81496zm-45.78634,-78.45788c-0.0201,2.43848 0.06138,4.90442 0.24223,7.3292l-1.20614,0.08992c-0.18304,-2.45799 -0.26553,-4.95743 -0.24549,-7.42893l1.2094,0.00981zm33.60528,70.32536l-0.75213,0.94644c-1.9317,-1.53489 -3.8221,-3.16886 -5.61859,-4.85684l0.82835,-0.88068c1.77201,1.66508 3.63679,3.27715 5.54237,4.79108l0,0zm-32.51562,-55.71175c0.38149,2.40382 0.86905,4.82249 1.44929,7.18852l-1.17434,0.28752c-0.58818,-2.39806 -1.08255,-4.84973 -1.46926,-7.28675l1.19431,-0.18929zm21.84366,45.68295l-0.89849,0.80886c-1.65009,-1.83071 -3.24546,-3.75578 -4.74196,-5.72107l0.96223,-0.73213c1.47649,1.93891 3.05029,3.83781 4.67822,5.64434zm-18.35361,-31.45105c0.77214,2.3037 1.652,4.60816 2.6155,6.84917l-1.11115,0.47722c-0.97626,-2.27136 -1.86841,-4.60715 -2.65085,-6.94225l1.1465,-0.38414zm9.47841,19.79622l-1.01902,0.6509c-1.32698,-2.07595 -2.58969,-4.24245 -3.74409,-6.41931l1.06856,-0.56631c1.13953,2.15001 2.38522,4.28578 3.69455,6.33472z"/>
       <path fill="#3F3D56" id="Path" d="m164,210.49906c-0.50081,0.4881 -0.99834,0.99304 -1.47869,1.50094l-0.52131,-0.47858c0.48699,-0.51485 0.9913,-1.02681 1.499,-1.52142l0.501,0.49906z"/>
       <path fill="#3F3D56" id="Path" d="m429.31665,244c-0.12194,-0.19116 -2.99713,-4.79689 -3.99393,-14.36081c-0.91429,-8.77439 -0.32638,-23.56432 7.66874,-44.19504c15.14653,-39.08354 -3.4906,-70.61829 -3.68103,-70.9324l0.91947,-0.51175c0.04826,0.07965 4.85738,8.11977 7.69832,20.92244c3.75378,16.97364 2.38689,34.62213 -3.94047,50.87714c-15.12057,39.01681 -3.87926,57.48706 -3.76407,57.66926l-0.90703,0.53116z"/>
       <ellipse ry="6" rx="7" cy="104" cx="426" fill="#007EBA" id="Oval"/>
       <ellipse ry="6" rx="7" cy="128" cx="448" fill="#F3C843" id="Oval"/>
       <ellipse ry="6" rx="7" cy="143" cx="432" fill="#007EBA" id="Oval"/>
       <ellipse ry="6" rx="7" cy="159" cx="449" fill="#007EBA" id="Oval"/>
       <ellipse ry="6" rx="7" cy="180" cx="427" fill="#F3C843" id="Oval"/>
       <path fill="#3F3D56" id="Path" d="m435.11111,244c0,0 -6.94444,-17.14286 13.88889,-30l-13.88889,30z"/>
       <path fill="#3F3D56" id="Path" d="m426,240c0,0 -3.08931,-16.13743 -27,-15.99912l27,15.99912z"/>
       <path fill="#2F2E41" id="Shape" d="m218.5,343c-3.03757,0 -5.5,-2.46243 -5.5,-5.5c0,-3.03757 2.46243,-5.5 5.5,-5.5c3.03757,0 5.5,2.46243 5.5,5.5c-0.00347,3.03613 -2.46387,5.49653 -5.5,5.5zm0,-10.08333c-2.53131,0 -4.58333,2.05203 -4.58333,4.58333c0,2.5313 2.05202,4.58333 4.58333,4.58333c2.53131,0 4.58333,-2.05203 4.58333,-4.58333c-0.00281,-2.53014 -2.05319,-4.58052 -4.58333,-4.58333z"/>
       <path fill="#3F3D56" id="Shape" d="m287,21l-11,0l0,-11l11,0l0,11zm-10.15385,-0.84615l9.3077,0l0,-9.3077l-9.3077,0l0,9.3077z"/>
       <path fill="#2F2E41" id="Shape" d="m15.23896,297l-7.23896,-8.27844l7.76104,-7.72156l7.23896,8.27845l-7.76104,7.72155zm-6.08508,-8.23561l6.12527,7.00484l6.56703,-6.53362l-6.1253,-7.00484l-6.567,6.53362z"/>
       <polygon points="280,232 100,232 100,160 249.72491455078125,160 " fill="#EFEFEF" id="Path"/>
       <path fill="#3F3D56" id="Shape" d="m281,232l-204,0l0,-92l167.00554,0l0.1411,0.35133l36.85336,91.64867zm-202.89279,-1.1358l201.23849,0l-36.08136,-89.7284l-165.15713,0l0,89.7284z"/>
       <rect height="9" width="92" y="170" x="131" fill="#007EBA" id="Rectangle"/>
       <rect height="9" width="92" y="188" x="131" fill="#007EBA" id="Rectangle"/>
       <rect height="9" width="92" y="204" x="131" fill="#007EBA" id="Rectangle"/>
       <circle r="9.5" cy="229.5" cx="281.5" fill="#007EBA" id="Oval"/>
       <circle r="15.5" cy="91.5" cx="344.5" fill="#A0616A" id="Oval"/>
       <path fill="#A0616A" id="Path" d="m333.55649,99.33333c0,0 5.18187,12.00001 -1.94321,16.66667c-7.12508,4.66667 11.65922,24 11.65922,24l20.7275,-22.66666c0,0 -11.01148,-7.33334 -9.06828,-19.33334l-21.37523,1.33333z"/>
       <path fill="#A0616A" id="Path" d="m296.64209,148l-4.30021,26.04104c0,0 -7.3718,15.62462 -7.3718,29.29617c0,13.67154 -1.22861,16.27565 -1.22861,16.27565c0,0 -12.28632,26.04104 -3.6859,27.34309c8.60042,1.30205 12.28632,-26.69207 12.28632,-26.69207c0,0 11.672,-30.59822 11.672,-40.36362l7.98611,-21.48386l-15.35791,-10.4164z"/>
       <path fill="#A0616A" id="Path" d="m391.2335,149l1.29866,22.79132c0,0 4.54537,11.72125 1.29866,32.55903l-2.59735,20.18659c0,0 5.84405,22.79132 0,23.44251c-5.84405,0.65118 -12.98678,-14.32598 -9.09074,-22.79132l0,-7.16299c0,0 -3.89604,-30.60549 -2.59736,-35.81493l-4.54537,-24.74486l16.2335,-8.46535z"/>
       <polygon points="309,324.75 315.25,341 329,338.5 320.25,321 " fill="#A0616A" id="Path"/>
       <polygon points="370.79998779296875,342 369,364 384,364 383.3999938964844,344.8946838378906 " fill="#A0616A" id="Path"/>
       <path fill="#2F2E41" id="Path" d="m317.4361,192.03827l-1.88174,9.63296c0,0 -3.76353,3.21099 -3.76353,6.42198c0,3.21099 -1.25449,4.49538 -1.25449,4.49538c0,0 -0.62725,0 -1.2545,1.28438c-0.32406,0.70144 -0.74671,1.35052 -1.25449,1.92657c0,0 -37.008,38.53185 -28.85369,57.79777c8.15431,19.26593 23.83559,58.43999 23.83559,58.43999c0,0 18.19039,-5.77978 18.19039,-10.27516l-17.56311,-50.7336l35.12621,-37.24744l28.22645,39.17407c0,0 -5.6453,68.71513 -1.88175,69.35732c3.76356,0.6422 24.46292,5.13759 25.09017,3.21099c0.62726,-1.92659 3.76353,-87.33885 2.50902,-90.54984c-1.25451,-3.21099 -19.44488,-41.74283 -19.44488,-41.74283c0,0 3.13627,-3.85319 1.25449,-5.13758c-1.88178,-1.2844 -5.01804,-13.4862 -5.01804,-13.4862c0,0 -48.92583,-8.34856 -52.0621,-2.56876z"/>
       <path fill="#D0CDE1" id="Path" d="m347.37607,122.73657l-13.09324,-7.92257c0,0 -7.69311,0.275 -9.6418,2.18689c-1.9487,1.91189 -13.64103,7.01027 -13.64103,7.01027c0,0 2.59829,76.47569 7.79487,73.9265c5.19659,-2.5492 1.29913,-4.46108 5.19658,-2.54919c3.89745,1.91189 50.01711,2.54919 50.66668,2.54919c0.64958,0 1.29913,-1.27458 1.29913,-1.27458l2.59829,-38.87516l8.44445,-32.50217l-25.00044,-11.28575l-14.62349,8.73657z"/>
       <path fill="#D0CDE1" id="Path" d="m318,124l-5.37519,0c0,0 -7.39088,1.86883 -10.75037,11.83607c-3.35949,9.96723 -4.70329,14.32786 -3.35949,15.57377c1.34379,1.24591 19.48505,10.59016 19.48505,10.59016l0,-38z"/>
       <path fill="#D0CDE1" id="Path" d="m378.01405,125l8.02811,0.63977c0,0 10.32186,26.87087 7.45468,28.15043c-2.86719,1.27956 -19.49684,10.8763 -19.49684,8.95695c0,-1.91934 4.01405,-37.74715 4.01405,-37.74715z"/>
       <path fill="#2F2E41" id="Path" d="m335.00877,74.73168c-0.75735,0.62149 -1.54775,1.20454 -2.36799,1.74678c-1.03429,0.82731 -1.98966,1.74226 -2.85466,2.73388l-0.97613,1.05361c-0.83068,0.89661 -1.71207,1.91994 -1.67702,3.12165c0.013,0.44591 0.15514,0.87857 0.21082,1.32142c0.22086,1.7567 -0.89283,3.68752 0.02393,5.22054c0.26504,0.44321 0.67498,0.78975 0.96717,1.2168c0.37177,0.54737 0.53646,1.20157 0.46633,1.85235c0.98516,0.03894 1.79331,-0.81223 2.10229,-1.71497c0.30898,-0.90274 0.26719,-1.87796 0.41767,-2.81743c0.15048,-0.93948 0.57314,-1.93426 1.45857,-2.35252c1.88923,-0.89242 4.05862,1.42784 6.07513,0.84964c1.40796,-0.40372 2.15049,-2.08646 3.58998,-2.36863c1.03029,-0.20197 2.02211,0.38822 2.97978,0.80653c0.95767,0.41831 2.24858,0.61194 2.92574,-0.16345c0.44833,-0.51337 0.49618,-1.33603 1.09082,-1.68489c0.71267,-0.4181 1.60515,0.16403 2.14473,0.77744c0.53957,0.61341 1.13556,1.36349 1.96946,1.34117c1.10627,-0.02963 1.95364,-1.45007 3.00369,-1.11308c1.1852,0.38035 0.64011,2.20886 1.35922,3.19358c0.60796,0.83251 1.88112,0.78348 2.9275,0.64594c0.35869,0.03503 0.71089,-0.11006 0.93257,-0.38417c0.22163,-0.27412 0.28173,-0.63881 0.15901,-0.96564l-0.43706,-5.58776c-0.00191,-0.3851 -0.08931,-0.76535 -0.25633,-1.11518c-0.30428,-0.53146 -0.9344,-0.80062 -1.3629,-1.24544c-0.90094,-0.93524 -0.85764,-2.57483 -1.97797,-3.25491c-0.58171,-0.35314 -1.34263,-0.34253 -1.92024,-0.70189c-0.74071,-0.46086 -0.97936,-1.38383 -1.49824,-2.07096c-0.74179,-0.98232 -2.03867,-1.43777 -3.29231,-1.56273c-1.25364,-0.12497 -2.51895,0.02575 -3.77874,-0.01386c-2.56113,-0.08056 -5.1222,-0.77548 -7.69583,-0.36868c-2.24543,0.35498 -3.18814,2.19191 -4.70899,3.60486z"/>
       <path fill="#2F2E41" id="Path" d="m316.16158,333.8968l-5.28068,-1.8968l-12.20534,15.8069c0,0 -22.66706,15.8069 -1.94287,15.17462c0,0 16.19076,-2.5291 17.48603,-6.95504c0,0 18.78128,-5.0582 18.78128,-8.21958c0,-3.16138 -4.31618,-11.58907 -5.72006,-11.80117c-1.40387,-0.2121 -7.23257,2.31701 -11.11836,-2.10893z"/>
       <path fill="#2F2E41" id="Path" d="m384.43864,358.06712c0,0 -16.50889,-0.23788 -16.40333,0.182c0.10556,0.41988 -4.64796,10.04987 -3.96888,13.66111c0.67908,3.61124 6.79074,8.42623 5.43259,10.83373c-1.35814,2.4075 4.07444,9.62999 14.93962,10.23186c10.86518,0.60187 9.50703,-10.23186 9.50703,-10.23186l-5.43258,-11.4356l-4.07445,-13.24124z"/>
      </g>
      <g fill-rule="nonzero" transform="translate(818,268.5) scale(-1,1) translate(-818,-268.5) translate(651,145) " id="1AnswerBoy">
       <g id="ChatBubble">
        <path fill="#3F3D56" id="Path" d="m151.99795,71.90243c0.01548,2.00067 -0.05678,4.01432 -0.2168,6.04095c-0.09677,1.30783 -0.23613,2.61566 -0.41032,3.92739c-0.09677,0.75901 -0.20774,1.51802 -0.3329,2.27703c-0.21678,1.31951 -0.4671,2.62475 -0.75097,3.91572c-0.04258,0.2024 -0.08903,0.40091 -0.13936,0.60332c-2.84744,12.52928 -8.9814,24.0626 -17.76388,33.40037c8.40041,6.47397 11.39192,17.8361 7.2777,27.64154c-4.11422,9.80545 -14.29568,15.57913 -24.76922,14.04609c-10.47355,-1.53304 -18.59546,-9.98584 -19.75882,-20.56378c-8.82011,1.90487 -17.91821,2.12143 -26.81808,0.63835c-39.23228,-6.49246 -65.80262,-43.7307 -59.34969,-83.1798c6.45292,-39.44911 43.49034,-66.17018 82.72262,-59.67772c26.88998,4.43953 48.98165,23.76658 57.07359,49.93124c0.06193,0.2024 0.12,0.40091 0.18193,0.60331c0.64258,2.12913 1.18581,4.29458 1.62968,6.49636c0.26323,1.30005 0.48774,2.60788 0.68129,3.92739c0.28645,1.99289 0.49548,4.00914 0.61548,6.04095c0.0813,1.30394 0.12388,2.61437 0.12775,3.93129z"/>
        <path fill="#F2F2F2" id="Path" d="m20.60316,87.40888l0,-35.81776l128.0552,0c-0.06186,-0.19831 -0.11986,-0.39281 -0.18172,-0.59112l-128.47664,0l0,37l129.86081,0c0.05026,-0.19831 0.09666,-0.39281 0.13919,-0.59112l-129.39684,0z"/>
        <rect height="16" width="15" y="66" x="26" opacity="0.1" fill="#000000" id="Rectangle"/>
        <path fill="#F2F2F2" id="Shape" d="m26,57l0,24l24,0l0,-24l-24,0zm23.40087,23.40097l-22.80174,0l0,-22.79807l22.80174,0l0,22.79807z"/>
        <path fill="#FF6584" id="Shape" d="m98,117l-14,0l0,-14l14,0l0,14zm-13.22222,-0.77778l12.44444,0l0,-12.44444l-12.44444,0l0,12.44444z"/>
        <polygon points="58.8829345703125,111 54,106.40875244140625 54.5133056640625,105.83465576171875 58.742462158203125,109.81207275390625 68.36822509765625,95 69,95.43231201171875 " fill="#95FF25" id="Path"/>
        <polygon points="71.22221374511719,106.5 71.22221374511719,116.22222900390625 58.77777099609375,116.22222900390625 58.77777099609375,103.77777099609375 68.5,103.77777099609375 68.5,103 58,103 58,117 72,117 72,106.5 " fill="#F2F2F2" id="Path"/>
        <rect height="1" width="75" y="64" x="65" fill="#F2F2F2" id="Rectangle"/>
        <rect height="1" width="75" y="70" x="65" fill="#F2F2F2" id="Rectangle"/>
        <rect height="1" width="75" y="76" x="65" fill="#F2F2F2" id="Rectangle"/>
       </g>
       <circle r="24" cy="86" cx="233" fill="#FBBEBE" id="Oval"/>
       <path fill="#FBBEBE" id="Path" d="m243,104.61905c0,0 -3.04348,14.47619 -3.04348,16c0,1.52381 -14.45652,8.38095 -14.45652,8.38095l-12.93478,-2.28571l-4.56522,-13.71429c0,0 7.60868,-11.42857 7.60868,-16l27.39132,7.61905z"/>
       <path fill="#D0CDE1" id="Path" d="m272,138.55927l-15.14528,44.10506l0,0.0039l-7.29907,21.26521c0,0 -0.74504,24.79643 -1.49396,27.04923c-0.74892,2.2528 0.74892,3.00504 1.49396,3.75727c0.74892,0.75224 -0.74504,3.00504 -1.49396,3.00504c-0.15522,0 -0.3764,0.4872 -0.62475,1.25502l-72.52504,0l5.82063,-62.11969l-0.357,-2.8959l-6.37553,-51.95479l36.89891,-13.02962l0,0.0039c-0.00388,0.28062 -0.09701,10.82359 10.97771,14.52629c11.22217,3.75727 18.94419,-8.87869 18.94419,-8.87869l31.17919,23.90777z"/>
       <path fill="#FBBEBE" id="Path" d="m102.69704,223c0,0 -19.718,12.85312 -17.52711,21.16985c2.19089,8.31673 24.83007,-14.36525 24.83007,-15.12132c0,-0.75607 -7.30296,-6.04853 -7.30296,-6.04853z"/>
       <path fill="#2F2E41" id="Path" d="m255.41927,73.15546c0,0 -7.53393,-16.36648 -21.9739,-12.5896c-14.43997,3.77688 -22.60173,9.4422 -23.22955,15.10753c-0.62783,5.66532 0.31391,14.1633 0.31391,14.1633c0,0 1.56956,-11.64538 11.61478,-9.12746c10.04521,2.51792 25.74085,0.62948 25.74085,0.62948l2.51131,22.66129c0,0 2.82521,-4.09162 5.96434,-1.5737c3.13913,2.51793 9.10346,-24.23499 -0.94174,-29.27084z"/>
       <path fill="#D0CDE1" id="Path" d="m286,206.07916c0,0 0,17.09352 -6.34463,31.92084l-21.80058,0l0.19202,-0.50058l0,-3.74079c0,0 2.2651,-2.99185 2.2651,-3.74078c0,-0.74893 -3.02144,-0.74893 -0.75636,-2.24292c2.26902,-1.49786 4.53412,-16.461 4.53412,-16.461c0,0 -0.75634,-2.99185 -1.51268,-3.74078c-0.75242,-0.74506 0.75634,-2.99185 0.75634,-2.99185l-1.50876,-2.24292l-5.47464,-20.42297l0,-0.00388l-4.34993,-16.23206l8.31189,-27.67947l11.33333,0c0,0 9.82065,8.2305 9.06431,23.93869l5.29047,44.14047z"/>
       <path fill="#D0CDE1" id="Path" d="m181.5,108l-12.74999,2.25c0,0 -7.50001,7.5 -10.50001,16.5l-5.99999,27l-9.75,19.5c0,0 -11.24999,11.25 -19.49999,36.75l-12.00002,22.5l12.75,7.5c0,0 35.25,-41.25001 39.75,-55.5l19.5,-37.5l-1.5,-39z"/>
       <path fill="#F2F2F2" id="Shape" d="m329.00019,60c-5.25793,0 -9.99814,-3.1673 -12.01026,-8.025c-2.01212,-4.85769 -0.89991,-10.44914 2.81801,-14.16706c3.71792,-3.71792 9.30937,-4.83013 14.16706,-2.81801c4.8577,2.01213 8.025,6.75233 8.025,12.01026c-0.00818,7.1762 -5.8236,12.99163 -12.99981,12.99981l0,0zm0,-25.39498c-6.84566,0 -12.39516,5.54951 -12.39516,12.39517c0,6.84566 5.5495,12.39516 12.39516,12.39516c6.84566,0 12.39516,-5.5495 12.39516,-12.39516c-0.00775,-6.84245 -5.55271,-12.38742 -12.39516,-12.39517z"/>
      </g>
     </g>
     <text x="45.5" y="734" fill="#FFFFFF" font-weight="bold" font-size="29" font-family="AvenirNext-Bold, Avenir Next" transform="rotate(-90 45.50000000000012,734.0000000000001) translate(-182,-734) " id="Knowledge-grows,-whe">
      <tspan id="svg_3" y="1264.333374" x="125.666667">Knowledge grows, when shared</tspan>
     </text>
     <g stroke="#007EBA" opacity="0.33345" id="Group-2">
      <ellipse ry="20.5" rx="76" cy="1046.5" cx="481.329268" fill="#F3FDFF" id="Oval"/>
      <ellipse ry="25.5" rx="85.5" cy="1046.5" cx="477.829268" fill="#AFDAED" id="Oval"/>
     </g>
     <circle r="50" cy="640" cx="427" transform="rotate(-135 -136.5,0) " fill="url(#radialGradient-4)" id="HandBall"/>
    </g>
   </g>
  </g>
 </g>
</svg>