<?xml version="1.0" encoding="UTF-8"?>
<svg width="385px" height="371px" viewBox="0 0 385 371" version="1.1" xmlns="http://www.w3.org/2000/svg" xmlns:xlink="http://www.w3.org/1999/xlink">
    <!-- Generator: Sketch 55.2 (78181) - https://sketchapp.com -->
    <title>MentorBoxGirl</title>
    <desc>Created with Sketch.</desc>
    <g id="Page-1" stroke="none" stroke-width="1" fill="none" fill-rule="evenodd">
        <g id="Desktop-HD" transform="translate(-1055.000000, -1215.000000)" fill-rule="nonzero">
            <g id="MentorBoxGirl" transform="translate(1289.000000, 1400.500000) scale(-1, 1) translate(-1289.000000, -1400.500000) translate(1055.000000, 1215.000000)">
                <rect id="Rectangle" fill="#363640" opacity="0.0733584449" x="81" y="232" width="329" height="139"></rect>
                <rect id="Rectangle" fill="#3F3D56" x="81" y="241" width="329" height="1"></rect>
                <circle id="Oval" fill="#3F3D56" opacity="0.165573847" cx="87.5" cy="236.5" r="2.5"></circle>
                <circle id="Oval" fill="#3F3D56" opacity="0.165573847" cx="95.5" cy="236.5" r="2.5"></circle>
                <circle id="Oval" fill="#3F3D56" opacity="0.165573847" cx="103.5" cy="236.5" r="2.5"></circle>
                <polygon id="Path" fill="#007EBA" opacity="0.165573847" points="262.5 302 266.053672 309.242204 274 310.403074 268.250255 316.04041 269.607344 324 262.5 320.241947 255.392656 324 256.749745 316.04041 251 310.403074 258.946328 309.242204"></polygon>
                <polygon id="Path" fill="#007EBA" points="325.5 41 329.053672 48.2422041 337 49.403074 331.250255 55.0404102 332.607344 63 325.5 59.2419472 318.392656 63 319.749745 55.0404102 314 49.403074 321.946328 48.2422041"></polygon>
                <polygon id="Path" fill="#007EBA" opacity="0.165573847" points="294.5 302 298.053672 309.242204 306 310.403074 300.249745 316.04041 301.607344 324 294.5 320.241947 287.392656 324 288.749745 316.04041 283 310.403074 290.946328 309.242204"></polygon>
                <polygon id="Path" fill="#007EBA" opacity="0.165573847" points="325.5 302 329.053672 309.242204 337 310.403074 331.249745 316.04041 332.607344 324 325.5 320.241947 318.392656 324 319.749745 316.04041 314 310.403074 321.946328 309.242204"></polygon>
                <polygon id="Path" fill="#007EBA" opacity="0.165573847" points="356.5 302 360.053672 309.242204 368 310.403074 362.249745 316.04041 363.607344 324 356.5 320.241947 349.392656 324 350.749745 316.04041 345 310.403074 352.946328 309.242204"></polygon>
                <polygon id="Path" fill="#007EBA" opacity="0.165573847" points="388.5 302 392.053672 309.242204 400 310.403074 394.249745 316.04041 395.607344 324 388.5 320.241947 381.392145 324 382.749745 316.04041 377 310.403074 384.946328 309.242204"></polygon>
                <rect id="Rectangle" fill="#8D8D99" opacity="0.165573847" x="104" y="273" width="128" height="81"></rect>
                <polygon id="Path" fill-opacity="0.6" fill="#000000" opacity="0.0733584449" points="130 138 0 227 0 181.405462 63.3995338 138"></polygon>
                <polygon id="Path" fill-opacity="0.6" fill="#000000" opacity="0.0733584449" points="0 328 0 282.451625 210.603375 138 277 138"></polygon>
                <path d="M74.6867554,204 L66,194.686758 L75.3132545,186 L84,195.313256 L74.6867554,204 Z M67.3846135,194.734953 L74.7349499,202.615384 L82.6153963,195.265067 L75.2650649,187.384631 L67.3846135,194.734953 Z" id="Shape" fill="#F0F0F0"></path>
                <path d="M368,198 L355,198 L355,185 L368,185 L368,198 Z M356.000007,197.000002 L367.000007,197.000002 L367.000007,186.000002 L356.000007,186.000002 L356.000007,197.000002 Z" id="Shape" fill="#3F3D56" opacity="0.404738653"></path>
                <circle id="Oval" fill="#F0F0F0" cx="448.5" cy="302.5" r="6.5"></circle>
                <path d="M449,321 C438.50659,321 430,312.49341 430,302 C430,291.50659 438.50659,283 449,283 C459.49341,283 468,291.50659 468,302 C467.988256,312.488542 459.488542,320.988256 449,321 Z M449,284.461539 C439.313775,284.461539 431.461539,292.313775 431.461539,302 C431.461539,311.686225 439.313775,319.538461 449,319.538461 C458.686225,319.538461 466.538461,311.686225 466.538461,302 C466.527386,292.318366 458.681634,284.472614 449,284.461539 Z" id="Shape" fill="#2F2E41" opacity="0.188406808"></path>
                <path d="M150.931875,336.666265 C154.017716,347.988104 164.587403,355 164.587403,355 C164.587403,355 170.153961,343.655573 167.068125,332.333735 C163.982289,321.011896 153.412597,314 153.412597,314 C153.412597,314 147.846039,325.344427 150.931875,336.666265 Z" id="Path" fill="#FFFFFF" opacity="0.165573847"></path>
                <path d="M155.703867,333.980857 C163.988136,342.265133 165,355 165,355 C165,355 152.580407,354.303393 144.296133,346.019117 C136.011859,337.734842 135,325 135,325 C135,325 147.419593,325.696577 155.703867,333.980857 Z" id="Path" fill="#007EBA" opacity="0.165573847"></path>
                <path d="M179.068122,336.666265 C175.982286,347.988104 165.412598,355 165.412598,355 C165.412598,355 159.846039,343.655573 162.931875,332.333735 C166.017711,321.011896 176.587405,314 176.587405,314 C176.587405,314 182.153963,325.344427 179.068122,336.666265 Z" id="Path" fill="#FFFFFF" opacity="0.165573847"></path>
                <path d="M174.296136,333.980857 C166.011864,342.265133 165,355 165,355 C165,355 177.419596,354.303393 185.703864,346.019117 C193.988131,337.734842 195,325 195,325 C195,325 182.580409,325.696577 174.296136,333.980857 Z" id="Path" fill="#007EBA" opacity="0.165573847"></path>
                <polygon id="Path" fill="#F0F0F0" points="236.5 159 240.053672 166.242204 248 167.403074 242.249745 173.04041 243.607344 181 236.5 177.241947 229.392145 181 230.749745 173.04041 225 167.403074 232.946328 166.242204"></polygon>
                <path d="M249.147016,0 L249.147046,0 C261.216106,0 271,10.7871565 271,24.0937855 L271,41 L265.766286,41 L262.736264,34.736112 L263.493775,41 L229.853469,41 L227.098899,35.3055582 L227.787531,41 L224,41 L224,27.7255921 C224,12.4131862 235.258703,0 249.147016,0 Z" id="Path" fill="#2F2E41"></path>
                <path d="M274.036343,111 L287.531301,116.6868 L334.426275,154.48726 C336.150653,156.588368 337.207385,159.149619 337.462638,161.846644 C337.800013,166.195343 351.969717,188.942552 346.909127,191.953206 C341.848538,194.963861 323.630315,203.995833 322.618209,197.97452 C321.606103,191.953206 316.208103,166.195368 316.208103,166.195368 L271,126.053286 L274.036343,111 Z" id="Path" fill="#363640"></path>
                <path d="M327,193.33631 L332.703203,210.040173 C332.703203,210.040173 326.664516,216.387644 329.683862,221.73288 L329.683862,240.107136 L334.380628,240.107136 L335.722559,230.418892 C335.722559,230.418892 341.072185,239.98474 343.774139,240.107136 C349.43837,240.363724 360.655192,242.370077 360.990676,239.363383 C361.32616,236.356689 352.496683,233.425586 352.496683,233.425586 L343.103151,207.701632 L339.077363,192 L327,193.33631 Z" id="Path" fill="#363640"></path>
                <path d="M238.505786,106.164955 C238.505786,106.164955 235.483559,135.800736 244.21444,141.189058 C252.945322,146.57738 291.562717,163.752665 291.562717,163.752665 C291.562717,163.752665 275.108357,179.244096 278.466389,182.948569 C281.824421,186.653043 296.935572,196.756143 298.95039,194.735528 C300.965208,192.714913 323.464028,168.467448 320.7776,160.721735 C318.091173,152.976021 280.817012,127.718251 280.817012,127.718251 L276.451596,111.890048 L275.108382,99.0927798 L261.004645,90 L238.505786,106.164955 Z" id="Path" fill="#363640"></path>
                <circle id="Oval" fill="#FFB9B9" cx="254" cy="24" r="14"></circle>
                <path d="M243.727215,29 C243.727215,29 244.405246,41.7571394 233.895739,45.7857121 C223.386232,49.8142849 260,76 260,76 L260,46.7928641 C260,46.7928641 255.253761,41.7571495 260,34.0357247 L243.727215,29 Z" id="Path" fill="#FFB9B9"></path>
                <path d="M221,89 L223.708072,102.112787 L231.832279,147.167004 C231.832279,147.167004 225.062103,166.331854 234.201841,165.995627 C243.341579,165.6594 238.940975,145.149653 238.940975,145.149653 L234.201841,107.828633 L234.201841,93.370939 L221,89 Z" id="Path" fill="#FFB9B9"></path>
                <path d="M290.122074,47 L293.19532,58.860074 L307.195644,92.4071419 C307.195644,92.4071419 316.756865,108.333524 308.903003,107.994668 C301.049141,107.655813 301.049156,92.4071419 301.049156,92.4071419 L285,65.2984021 L285,50.0497311 L290.122074,47 Z" id="Path" fill="#FFB9B9" transform="translate(298.500000, 77.500000) scale(-1, -1) rotate(92.000000) translate(-298.500000, -77.500000) "></path>
                <path d="M281.142846,181 L269.946424,191.339298 C269.946424,191.339298 262.142853,189.671667 259.089285,198.676866 C256.035717,207.682065 254,213.351998 254,213.351998 L258.071429,215.686678 L263.160709,208.682637 C263.160709,208.682637 266.214282,221.356615 269.26785,222.357187 C272.321418,223.357758 287.589274,230.028277 286.232131,222.357187 L278.767846,211.684362 C278.767846,211.684362 277.74999,199.677433 280.803564,198.676856 C283.857137,197.67628 292,187.670514 292,187.670514 L281.142846,181 Z" id="Path" fill="#363640"></path>
                <path d="M237.999286,117 C237.999286,117 269.309787,105.506369 271.308333,106.520513 C272.795987,107.187509 274.380502,107.604884 276,107.756339 L275.971599,103.140033 C275.971599,103.140033 265.645796,99.4215046 259.983254,101.787841 C254.320713,104.154177 237,114.633664 237,114.633664 L237.999286,117 Z" id="Path" fill="#3F3D56"></path>
                <path d="M256.983805,69.3334186 C256.983805,69.3334186 247.988392,58.9345116 245.323063,52.5609854 C243.636762,48.6971534 240.541498,45.6326427 236.676163,44 C236.676163,44 216.67095,48.5355795 217.004116,56.5863711 C217.337281,64.6371628 229.66435,77.0487351 229.66435,77.0487351 C229.66435,77.0487351 227.998532,121.663404 236.993961,120.992509 C238.934204,118.661052 240.303614,115.903454 240.991932,112.941742 C241.991423,108.245451 272.975679,103.21373 272.975679,103.21373 C272.975679,103.21373 275.640993,107.910021 275.974159,105.897321 C276.307324,103.88462 273.308845,54.5736757 273.308845,54.5736757 L257.421266,44 L256.983805,69.3334186 Z" id="Path" fill="#D0CDE1"></path>
                <path d="M219.674472,53.593407 L219.450834,53.7197487 C217.997498,54.5407478 217.09782,56.0877507 217.098054,57.7653734 L217.101479,82.7160315 C217.09642,84.0887008 216.492329,85.3897703 215.449437,86.2741381 C214.162906,87.3757226 212.969889,88.9630937 215.431891,89.7892229 C219.439678,91.134038 235.13684,97.8581083 235.470818,95.5046832 C235.804797,93.1512581 236.472769,90.4616279 235.470818,90.4616279 C234.686425,90.4616279 230.01283,66.3530755 226.257537,56.0451723 C225.793339,54.7679704 224.795786,53.7601416 223.528711,53.2882383 C222.261636,52.8163351 220.852675,52.927893 219.674472,53.593407 Z" id="Path" fill="#D0CDE1"></path>
                <path d="M269,53 L273.75421,54.3577989 L279.187584,77.7798305 C279.187584,77.7798305 285.639709,79.1376294 283.602171,81.5137762 C281.564633,83.8899229 273.075041,90 273.075041,90 L269,53 Z" id="Path" fill="#D0CDE1"></path>
                <path d="M242.690607,6.59075212 C244.809805,3.74336199 248.133685,2.04619531 251.68154,2 L252.108109,2 C260.332692,2 267,9.4465341 267,18.63232 L267,18.6323549 L264.244159,18.6323549 L263.799095,15.2427759 L263.146549,18.6323549 L246.801812,18.6323549 L245.432432,15.7647074 L245.774786,18.6323549 L242.559306,18.6323549 C241.058853,26.0882366 243.21476,33.5441183 249.027026,41 L243.549537,41 L240.810812,35.2647049 L241.495485,41 L231.054057,41 L229,27.8087882 C229,17.9297917 234.736726,9.55262503 242.690607,6.59075212 Z" id="Path" fill="#2F2E41"></path>
            </g>
        </g>
    </g>
</svg>