<?xml version="1.0" encoding="UTF-8"?>
<svg width="612px" height="229px" viewBox="0 0 612 229" version="1.1" xmlns="http://www.w3.org/2000/svg" xmlns:xlink="http://www.w3.org/1999/xlink">
    <!-- Generator: Sketch 55.2 (78181) - https://sketchapp.com -->
    <title>Networking</title>
    <desc>Created with Sketch.</desc>
    <g id="Page-1" stroke="none" stroke-width="1" fill="none" fill-rule="evenodd">
        <g id="Desktop-HD" transform="translate(-772.000000, -3726.000000)">
            <g id="Networking" transform="translate(768.000000, 3720.000000)">
                <g id="undraw_message_sent_1030" transform="translate(154.500000, 108.500000) scale(-1, 1) rotate(2.000000) translate(-154.500000, -108.500000) translate(4.000000, 6.000000)">
                    <path d="M212.533709,133.716343 L214.906611,133.307848 C215.134246,133.268129 215.360234,133.21976 215.587626,133.178684 C207.851867,128.39767 204.474433,118.918862 207.454399,110.352685 C210.434364,101.786508 218.976663,96.4184465 228.025183,97.4258101 L224.914985,104.794594 L232.283714,98.3883175 C232.300903,98.3925595 232.317725,98.3981617 232.334018,98.4050707 C237.207241,100.113975 241.199018,103.680447 243.431144,108.319851 C245.663271,112.959256 245.952889,118.291528 244.236282,123.143552 C244.113011,123.492916 243.966265,123.826497 243.825448,124.164159 C245.90571,123.123457 247.901285,121.911966 249.528667,120.360735 C252.823315,117.217321 254.628479,112.879565 256.645735,107.535348 C260.642276,96.9449846 264.490053,86.2013282 268.184287,75.4342521 C259.767182,70.8992082 255.908002,60.9461743 259.080882,51.9560809 C259.278824,51.3961877 259.508127,50.8570442 259.751176,50.3275415 C259.811929,50.1950279 259.873234,50.0633571 259.936691,49.9327384 C260.183694,49.4250921 260.444457,48.9277119 260.730622,48.4503664 C260.777398,48.3721116 260.829803,48.2988838 260.877576,48.2214773 C261.126644,47.8190045 261.389367,47.4284436 261.665745,47.0497946 C261.768632,46.907632 261.871177,46.7658636 261.977581,46.6270777 C262.290727,46.2193712 262.61502,45.8226514 262.956986,45.4439108 C263.071257,45.3171855 263.192493,45.1987823 263.309808,45.0753304 C263.572528,44.7993265 263.842449,44.5316538 264.119571,44.2723124 C264.265687,44.1357804 264.41024,43.9982588 264.560189,43.8665662 C264.598674,43.8327798 264.634579,43.7959049 264.67331,43.7623959 C264.675248,43.7648673 264.676756,43.7675181 264.678618,43.7699596 C271.758931,37.6265673 282.235057,37.3922445 289.585306,43.212864 L285.538159,52.8020449 L292.823105,46.4719519 C298.055817,53.1097794 298.347518,62.3637139 293.543167,69.3151941 C293.549882,69.3175513 293.55682,69.3193729 293.563535,69.3217192 C293.483995,69.4381158 293.393661,69.5446433 293.311844,69.6589629 C293.15823,69.8735222 293.000963,70.0842653 292.840043,70.2911921 C292.633062,70.5565457 292.418122,70.8130033 292.198704,71.0659592 C292.033021,71.2568941 291.869728,71.4494141 291.697276,71.633079 C291.445036,71.9017576 291.180756,72.1561572 290.914735,72.4091402 C290.759398,72.5567024 290.610921,72.7117411 290.451183,72.8538847 C290.032431,73.2263313 289.599211,73.5797236 289.151524,73.9140618 C288.994489,74.0311627 288.828792,74.1344602 288.668508,74.2466075 C288.354179,74.4667557 288.03822,74.6836687 287.711909,74.8845815 C287.509415,75.0091944 287.30155,75.1231061 287.094791,75.2402178 C286.795554,75.4099353 286.494193,75.5743566 286.186524,75.7279545 C285.968391,75.836831 285.74867,75.9401802 285.526627,76.0409031 C285.210728,76.1842511 284.890854,76.3171943 284.567615,76.4437157 C284.350703,76.5285419 284.134873,76.6144555 283.914941,76.6915902 C283.55213,76.8188294 283.183989,76.9293671 282.81366,77.035185 C282.626742,77.0886771 282.442843,77.1498742 282.254185,77.1977684 C281.698653,77.3388408 281.136939,77.4589323 280.568627,77.5509387 C280.461757,77.5683145 280.352958,77.574864 280.245681,77.590391 C279.774609,77.6586462 279.301052,77.7137233 278.823725,77.747371 C278.618544,77.7617588 278.412132,77.7638306 278.206074,77.7718211 C277.820263,77.7867744 277.434059,77.794387 277.045747,77.7861164 C276.819275,77.7813314 276.592927,77.7696678 276.365863,77.756914 C275.987764,77.735615 275.609317,77.7028301 275.230523,77.6585592 C275.006547,77.6327307 274.783216,77.607098 274.559096,77.5733116 C274.153201,77.5119975 273.747935,77.4318287 273.342474,77.3440255 C273.315897,77.3382725 273.289203,77.3347816 273.262579,77.3289199 C271.703334,81.8713701 270.11522,86.4041188 268.498237,90.9271659 C272.484134,87.358448 277.771614,85.5841347 283.11392,86.0225984 C288.456226,86.461062 293.38053,89.0734958 296.72571,93.2439035 L289.990881,100.659787 L299.109518,97.0354141 C301.324416,101.659883 301.604741,106.970715 299.888895,111.80087 C299.294381,113.498156 298.461288,115.10299 297.414463,116.567504 C292.804349,123.060129 284.680098,126.091958 276.919673,124.215802 C269.159247,122.339646 263.336027,115.935885 262.229619,108.061237 C262.058301,108.516963 261.892776,108.978406 261.721015,109.43368 C259.940844,114.148404 257.726203,120.015854 253.278576,124.25796 C250.263786,127.13327 246.554523,128.957467 242.995784,130.499736 C240.678417,131.503898 238.330207,132.432273 235.951153,133.284861 C233.306316,134.881553 230.318303,135.829706 227.233286,136.051204 C223.47948,137.089452 219.678331,137.956163 215.841592,138.625335 L213.449258,139.035942 C211.299297,139.402649 209.094751,139.780202 206.906801,140.215202 C207.221838,140.308266 207.537281,140.397053 207.85067,140.506873 C215.850165,143.31017 221.110243,150.942858 220.859133,159.382928 L205.861182,163.966464 L219.432535,166.112283 C216.909021,172.287191 211.378632,176.740021 204.786122,177.904939 C198.193612,179.069857 191.46205,176.783754 186.958581,171.850537 C187.096333,172.310088 187.234646,172.768919 187.373522,173.227031 C187.649008,174.137419 187.922307,175.042658 188.18483,175.939292 C191.755972,188.157009 190.219076,197.767772 183.856479,203 L180.40398,198.83887 C186.596463,193.74557 184.675234,183.250538 182.97995,177.446889 C182.722262,176.566437 182.45319,175.677125 182.182543,174.782911 C179.856607,167.089347 177.219876,158.368747 180.634867,150.355233 C185.781583,138.277205 200.614905,135.748296 212.533709,133.716343 Z" id="Path" fill="#F2F2F2" fill-rule="nonzero"></path>
                    <path d="M208.1129,204 L103.887094,204 C96.7697487,204 91,198.228144 91,191.1082 L91,143.339667 C91,141.937755 91.5760565,140.597478 92.5931283,139.633027 L147.822494,87.2610682 C152.407819,82.9129773 159.592178,82.9129773 164.177503,87.2610682 L216.835781,137.194948 C219.494268,139.715895 221,143.219198 221,146.883606 L221,191.1082 C221,194.527319 219.642256,197.806399 217.225456,200.224081 C214.808655,202.641763 211.530771,204 208.1129,204 L208.1129,204 Z" id="Path" fill="#3F3D56" fill-rule="nonzero"></path>
                    <path d="M91,144 L220,144 L220,196.199381 C220,200.507544 216.51378,204 212.213311,204 L98.7866893,204 C94.4862196,204 91,200.507544 91,196.199381 L91,144 Z" id="Path" fill="#000000" fill-rule="nonzero" opacity="0.1"></path>
                    <g id="Group" transform="translate(0.000000, 0.000000)"></g>
                    <rect id="Rectangle" fill="#6C63FF" fill-rule="nonzero" x="108" y="103" width="97" height="96" rx="26.1811"></rect>
                    <polygon id="Path" fill="#000000" fill-rule="nonzero" opacity="0.1" points="205 146 205 199 108 199 108 146 156.5 169.305834"></polygon>
                    <path d="M156,172.764069 L94.5766792,143.246921 C93.8043779,142.875791 92.8943885,142.92563 92.1677603,143.378855 C91.4411322,143.832081 91,144.624987 91,145.477832 L91,196.263105 C91,198.315057 91.81985,200.282966 93.2791942,201.733916 C94.7385385,203.184865 96.7178344,204 98.7816592,204 L213.218341,204 C215.282166,204 217.261462,203.184865 218.720806,201.733916 C220.18015,200.282966 221,198.315057 221,196.263105 L221,146.347817 C221,145.307119 220.461705,144.339561 219.575025,143.786505 C218.688345,143.233448 217.577915,143.172632 216.635502,143.625512 L156,172.764069 Z" id="Path" fill="#3F3D56" fill-rule="nonzero"></path>
                    <rect id="Rectangle" fill="#F2F2F2" fill-rule="nonzero" x="116" y="112" width="27" height="4"></rect>
                    <rect id="Rectangle" fill="#F2F2F2" fill-rule="nonzero" x="114" y="127" width="80" height="2"></rect>
                    <rect id="Rectangle" fill="#F2F2F2" fill-rule="nonzero" x="114" y="134" width="80" height="2"></rect>
                    <rect id="Rectangle" fill="#F2F2F2" fill-rule="nonzero" x="114" y="141" width="80" height="2"></rect>
                    <path d="M42,204 L266,204" id="Path" stroke="#3F3D56"></path>
                    <path d="M26,171 C26,187.029297 35.8398447,200 48,200" id="Path" fill="#46455B" fill-rule="nonzero"></path>
                    <path d="M48,200 C48,183.970704 59.18164,171 73,171" id="Path" fill="#6C63FF" fill-rule="nonzero"></path>
                    <path d="M34,173 C34,187.923831 40.2617189,200 48,200" id="Path" fill="#6C63FF" fill-rule="nonzero"></path>
                    <path d="M48,200 C48,179.54883 60.9707043,163 77,163" id="Path" fill="#46455B" fill-rule="nonzero"></path>
                    <path d="M43,199.715863 C43,199.715863 46.2249449,199.618061 47.1968612,198.936594 C48.1687775,198.255127 52.1576365,197.441415 52.3987458,198.534341 C52.639855,199.627267 57.2452386,203.970058 53.604292,203.998974 C49.9633454,204.027891 45.1443528,203.440544 44.1743063,202.858717 C43.2042598,202.276891 43,199.715863 43,199.715863 Z" id="Path" fill="#A8A8A8" fill-rule="nonzero"></path>
                    <path d="M53.6700141,203.64417 C50.0288131,203.671153 45.2094866,203.123284 44.2393696,202.580566 C43.5005751,202.167261 43.2061743,200.684219 43.1076686,200 C43.0394507,200.002695 43,200.003854 43,200.003854 C43,200.003854 43.2042741,202.392724 44.1743911,202.935439 C45.1445082,203.478153 49.9638485,204.026025 53.605033,203.999042 C54.6561056,203.991259 55.0191615,203.647817 54.9992271,203.139152 C54.8532106,203.446475 54.4523402,203.638379 53.6700141,203.64417 Z" id="Path" fill="#000000" fill-rule="nonzero" opacity="0.2"></path>
                    <path d="M220.842097,83.5405101 C220.680647,84.9918225 219.583508,86.1609083 219.176992,87.562552 C218.565126,89.6722179 219.623134,91.9360776 221.070392,93.5791044 C223.429081,96.2287271 226.740928,97.8153287 230.266765,97.9847973 C230.779565,98.0302803 231.296222,97.9734664 231.787272,97.8175961 C232.225699,97.6395969 232.620451,97.3674047 232.944092,97.0199372 C234.034013,95.9157419 234.619083,94.3857971 234.852248,92.8452681 C235.085413,91.304739 234.994799,89.7352761 234.903624,88.1796066 C234.904071,87.8580276 234.846166,87.5390828 234.732772,87.2385441 C234.584144,86.9522514 234.379991,86.699027 234.132444,86.4939203 C233.34775,85.7676309 232.483423,85.134124 231.556261,84.6057104 C231.137181,84.4162357 230.767593,84.1308917 230.476782,83.7722874 C230.301565,83.4650805 230.188168,83.1260005 230.143093,82.7744874 L229.858487,81.3111569 C229.807718,80.8894601 229.664978,80.4843506 229.440528,80.124952 C228.93775,79.4406326 227.976008,79.3475048 227.132384,79.314115 L224.041692,79.1917877 C223.08031,79.1537359 221.81357,78.8755777 220.875048,79.0660751 C219.998654,79.2439635 220.289767,80.0588038 220.448963,80.8007525 C220.679819,81.6965676 220.811667,82.6154174 220.842097,83.5405101 L220.842097,83.5405101 Z" id="Path" fill="#A0616A" fill-rule="nonzero"></path>
                    <path d="M220.842097,83.5405101 C220.680647,84.9918225 219.583508,86.1609083 219.176992,87.562552 C218.565126,89.6722179 219.623134,91.9360776 221.070392,93.5791044 C223.429081,96.2287271 226.740928,97.8153287 230.266765,97.9847973 C230.779565,98.0302803 231.296222,97.9734664 231.787272,97.8175961 C232.225699,97.6395969 232.620451,97.3674047 232.944092,97.0199372 C234.034013,95.9157419 234.619083,94.3857971 234.852248,92.8452681 C235.085413,91.304739 234.994799,89.7352761 234.903624,88.1796066 C234.904071,87.8580276 234.846166,87.5390828 234.732772,87.2385441 C234.584144,86.9522514 234.379991,86.699027 234.132444,86.4939203 C233.34775,85.7676309 232.483423,85.134124 231.556261,84.6057104 C231.137181,84.4162357 230.767593,84.1308917 230.476782,83.7722874 C230.301565,83.4650805 230.188168,83.1260005 230.143093,82.7744874 L229.858487,81.3111569 C229.807718,80.8894601 229.664978,80.4843506 229.440528,80.124952 C228.93775,79.4406326 227.976008,79.3475048 227.132384,79.314115 L224.041692,79.1917877 C223.08031,79.1537359 221.81357,78.8755777 220.875048,79.0660751 C219.998654,79.2439635 220.289767,80.0588038 220.448963,80.8007525 C220.679819,81.6965676 220.811667,82.6154174 220.842097,83.5405101 L220.842097,83.5405101 Z" id="Path" fill="#000000" fill-rule="nonzero" opacity="0.1"></path>
                    <path d="M240.797753,148.258106 C240.36754,153.151686 239.937332,158.044509 239.507128,162.936575 C239.170348,166.786523 238.827049,170.652253 238.166532,174.452599 C237.938382,175.762208 237.671128,177.065065 237.353905,178.356641 C236.471764,181.942852 235.192021,185.44792 234.77918,189.124311 C234.766144,189.230245 234.755283,189.33843 234.744422,189.446642 C234.698201,190.259589 234.549923,191.062804 234.303344,191.835945 C234.096929,192.397205 233.779698,192.908881 233.555911,193.463386 C233.110496,194.572383 233.051826,195.798595 232.997508,197 C231.430684,196.085898 229.715502,195.477756 227.937132,195.205773 C227.078887,195.072778 226.122878,194.978111 225.538401,194.313154 C224.890907,193.578326 224.962612,192.45355 225.071237,191.466269 C225.412365,188.400748 225.752766,185.336728 226.092441,182.274211 C226.203295,180.956616 226.419134,179.650806 226.737747,178.37017 C226.855087,177.944147 226.996307,177.524895 227.139718,177.105644 C227.337434,176.528604 227.537325,175.951561 227.687247,175.358739 C227.903292,174.400893 228.054309,173.428506 228.139187,172.448736 C228.488998,169.365175 228.910516,166.288373 229.279889,163.207069 L229.29945,163.044782 C229.853503,158.374353 230.275022,153.68139 230.153348,148.977157 C230.13596,148.28066 230.107714,147.584146 230.064257,146.885392 C230.003425,145.873318 229.914342,145.336852 230.722612,144.703459 C231.615617,144.004697 232.791064,143.515561 233.812283,143.057982 C234.362,142.810039 240.415331,140.580767 240.556565,141.069909 C240.840535,142.113244 240.989587,143.191104 240.999805,144.27518 C241.004122,145.605693 240.936666,146.935413 240.797753,148.258106 Z" id="Path" fill="#605D82" fill-rule="nonzero"></path>
                    <path d="M238,175.234183 C237.772405,176.523858 237.5058,177.806884 237.189348,179.078801 C236.30935,182.610426 235.032718,186.062143 234.620881,189.682575 C234.607877,189.786897 234.597042,189.893435 234.586208,190 C231.894177,186.062151 229.626992,181.826858 227,177.84684 C227.197235,177.278583 227.39664,176.710324 227.546198,176.126525 C227.761717,175.183258 227.912367,174.225672 227.997039,173.260815 C228.346,170.22419 228.766494,167.19422 229.134969,164.159817 L229.154482,164 C229.308665,164.644196 229.528797,165.26993 229.811223,165.866808 C231.575564,169.538294 235.767478,171.394007 237.817925,174.907868 C237.880778,175.016649 237.94147,175.125421 238,175.234183 Z" id="Path" fill="#000000" fill-rule="nonzero" opacity="0.1"></path>
                    <path d="M216.010281,142.767738 C216.101159,145.695991 216.571607,148.597821 217.04108,151.489898 L218.009719,157.456888 C218.53986,160.72264 219.091799,164.054946 220.642859,166.979967 C221.803139,169.168029 223.474815,171.035173 224.987104,172.998239 C228.704924,177.824252 231.497911,183.291109 235.02322,188.258474 C236.047903,189.702314 237.512576,191.263765 239.261359,190.962285 C240.409102,190.764417 241.242724,189.812289 242.144914,189.078187 C243.208566,188.212704 244.490515,187.579407 245.327412,186.494552 C246.164309,185.409697 246.328282,183.606441 245.194449,182.834462 C244.784184,182.608019 244.348614,182.430438 243.896714,182.305378 C242.139039,181.639331 241.001369,179.929102 240.277489,178.199785 C239.55361,176.470468 239.115029,174.611001 238.150438,173.002575 C236.054924,169.508364 231.76982,167.663103 229.966077,164.010843 C228.955826,161.965263 228.859543,159.607553 228.782322,157.329018 L228.58547,151.520655 C228.563942,150.885479 228.547101,150.224875 228.806243,149.644151 C229.496194,148.098018 231.579381,147.954008 233.266159,147.757996 C235.1806,147.534438 237.035182,146.951426 238.731753,146.039817 C239.703292,145.51708 240.652453,144.850693 241.172199,143.880052 C241.646382,142.994499 241.711821,141.955831 241.767426,140.953652 L242.351473,130.427263 C242.40172,129.521635 242.447544,128.585241 242.127199,127.736262 C241.322818,125.604461 238.621123,124.907849 236.337659,125.00956 C232.088454,125.198831 228.165776,127.020097 224.159309,128.250016 C223.166949,128.561899 222.159442,128.823739 221.140621,129.034539 C220.241448,129.214331 219.153229,129.139731 218.295651,129.427801 C216.770544,129.940108 216.809269,133.263305 216.593009,134.64181 C216.146358,137.326595 215.951275,140.046952 216.010281,142.767738 L216.010281,142.767738 Z" id="Path" fill="#605D82" fill-rule="nonzero"></path>
                    <path d="M238.824618,191.058244 C239.189719,191.448723 239.30906,192.02078 239.404166,192.561353 C239.931539,195.559885 240.205853,198.602299 240.22385,201.652485 C240.19945,201.937078 240.253023,202.223092 240.378137,202.476188 C240.480954,202.627143 240.620273,202.74588 240.781405,202.81988 C241.836621,203.353239 243.061406,202.609929 243.940695,201.793082 C245.570696,200.278815 246.949947,198.246307 247.04253,195.950323 C247.025561,195.358945 247.045094,194.767023 247.101004,194.178349 C247.244173,193.313968 247.720127,192.560836 248.139504,191.804266 C248.853206,190.516379 249.42886,189.147887 249.855735,187.724304 C250.016045,187.189465 250.122669,186.516025 249.727488,186.142768 C249.587373,186.026336 249.428083,185.938517 249.257724,185.88378 L244.491029,184.006814 C244.077964,183.844165 243.050115,186.644218 242.886978,186.950329 C242.487919,187.699112 242.091125,188.124193 241.29053,188.297031 C240.473311,188.473457 239.500488,188.220303 238.737956,188.652697 C237.448053,189.384122 238.094266,190.277118 238.824618,191.058244 Z" id="Path" fill="#535070" fill-rule="nonzero"></path>
                    <path d="M231.004596,192.883627 C230.906503,192.694166 230.769946,192.525959 230.603153,192.389143 C230.358991,192.23869 230.081379,192.14706 229.793414,192.121875 C228.789355,191.956242 227.599279,191.847181 226.906283,192.572244 C226.256577,193.252019 226.368272,194.359413 225.825094,195.122334 C225.65314,195.363853 225.420155,195.562899 225.271069,195.818359 C225.086023,196.208865 225.00256,196.637558 225.028016,197.066748 C225,198.249269 224.97199,199.433797 225.056068,200.613817 C225.126525,201.602622 225.298082,202.638781 225.934532,203.41344 C226.956077,204.656803 228.798508,204.835591 230.433888,204.916291 L231.758382,204.981648 C232.123159,205.024722 232.493197,204.991763 232.843833,204.884966 C233.28234,204.688039 233.62009,204.326999 233.780092,203.884145 C234.469537,202.219278 233.377689,200.425564 232.705132,198.754188 C231.932109,196.833085 232.070916,194.699953 231.004596,192.883627 Z" id="Path" fill="#535070" fill-rule="nonzero"></path>
                    <path d="M221.088382,75.1528916 C221.073814,74.9837675 221.096735,74.8133171 221.155237,74.6557469 C221.329408,74.3218014 221.784204,74.4126879 222.127278,74.5064781 C223.506971,74.8836581 224.960727,74.5422361 226.381268,74.6303519 C227.80181,74.7184676 229.401949,75.4885289 229.687571,77 C230.718658,76.2073722 231.607478,75.2170928 232.310233,74.0779629 C232.70448,73.4382152 233.048122,72.7054315 232.99445,71.9381946 C232.917039,70.8315581 232.060783,70.0039534 231.267948,69.302129 L228.904562,67.2100268 C228.5944,66.9009056 228.236119,66.653906 227.846378,66.480511 C227.30062,66.2782773 226.705465,66.3746321 226.128721,66.3750332 C224.408335,66.3762279 222.574069,65.5272418 221.043994,66.3800975 C220.404847,66.7363536 219.923777,67.3468537 219.460023,67.9421326 L217.350666,70.6496636 C217.191884,70.8222192 217.0759,71.0354929 217.013487,71.2696709 C216.953473,71.6001621 217.109994,71.9263233 217.164614,72.2579103 C217.26425,72.8627727 217.023997,73.5083134 217.208705,74.0891846 C217.515349,75.0535033 218.595124,75.1900082 219.25525,75.7428407 C219.501283,75.9488846 219.886877,76.64717 220.180015,76.6386428 C220.708919,76.6232578 221.074632,75.5984723 221.088382,75.1528916 Z" id="Path" fill="#3F3D56" fill-rule="nonzero"></path>
                    <circle id="Oval" fill="#A0616A" fill-rule="nonzero" cx="224" cy="76" r="7"></circle>
                    <path d="M226.007674,91.5467515 C225.515544,90.1526602 224.166734,89.2346837 222.674315,89.2781257 C222.466269,89.3164249 222.251323,89.2895464 222.059463,89.2012399 C221.95096,89.1187912 221.864257,89.0115849 221.806765,88.888785 C221.376976,88.1244274 221.031463,87.316617 220.776174,86.4792593 C220.663414,86.1092627 220.509215,85.6730658 220.130772,85.5768709 C219.811479,85.5355465 219.49515,85.6716307 219.308033,85.9308121 C219.128295,86.1868364 218.931863,86.4309936 218.719988,86.6617291 C217.831024,87.4478183 216.255209,86.731342 215.311675,87.4525411 C215.157555,87.5703418 215.030362,87.721248 214.86849,87.8284035 C214.706475,87.9248553 214.531859,87.9988941 214.349515,88.0484536 C212.527493,88.6367205 210.741347,89.328571 209,90.120549 C209.627614,93.8585808 210.270726,97.661783 211.741871,101.160547 C212.441967,102.82557 213.235351,104.456271 213.795967,106.172158 C215.038133,109.974037 215.093203,114.041865 215.107146,118.037266 C215.116685,120.771768 215.102942,123.56465 214.208375,126.152097 C213.967723,126.72391 213.798095,127.32248 213.703206,127.934694 C213.649179,128.551261 213.830652,129.231084 214.335788,129.596377 C214.628659,129.785808 214.963617,129.90216 215.311939,129.935457 C216.861985,130.160392 218.424646,129.752421 219.950894,129.402849 C224.041701,128.465911 228.213831,127.929777 232.377954,127.395054 L239.355732,126.499014 C239.855896,126.465416 240.345409,126.340296 240.7994,126.130012 C242.076253,125.438613 242.197471,123.539119 241.40454,122.33177 C241.024402,121.752953 240.488061,121.278103 240.168659,120.664437 C239.849258,120.050771 239.822058,119.192634 240.371916,118.7676 C241.490403,117.903021 241.156773,116.29894 241.210118,114.895977 C241.359274,110.973111 241.339095,107.048713 241.14958,103.122783 C241.09356,102.310101 241.080408,101.495084 241.11018,100.681047 C241.234183,99.3016554 241.491888,97.9372345 241.879743,96.6065853 L244,88.3502929 C243.446117,87.4846761 242.385589,86.935485 241.380946,86.6861411 C240.376304,86.4367971 239.329942,86.363413 238.340558,86.0602069 C236.313643,85.4390522 234.509122,83.8626982 232.392332,84.0096122 C232.232213,84.012457 232.074739,84.0504855 231.931314,84.1209432 C231.4539,84.3884209 231.529506,85.0688372 231.498989,85.6106476 C231.431473,86.8093762 230.539977,87.8112402 229.555473,88.5136693 C228.570968,89.2160984 227.44659,89.7282915 226.542366,90.5293686 C226.217866,90.7711862 226.021328,91.1451484 226.007674,91.5467515 L226.007674,91.5467515 Z" id="Path" fill="#65DFFF" fill-rule="nonzero"></path>
                    <path d="M198.785818,98.6932371 C198.313515,99.0063478 197.811627,99.2702008 197.287711,99.4808238 C196.774681,99.6367535 196.289964,99.8770965 195.852632,100.192396 C195.651074,100.370514 195.482105,100.583816 195.353606,100.822351 C194.862538,101.712043 194.884306,102.804295 195.410415,103.672825 C195.936524,104.541355 196.883584,105.048499 197.881979,104.99633 C198.533442,104.921749 199.166626,104.728861 199.751694,104.426754 L204.775148,102.202643 C205.625388,101.826205 206.543825,101.385044 206.945691,100.531949 C206.992512,100.452375 207.009865,100.358288 206.994602,100.26676 C206.954095,100.169973 206.880856,100.091309 206.788266,100.045142 C205.65519,99.2932923 204.664275,98.3386092 203.863199,97.2270266 C203.6571,96.9411255 203.404921,96.2660572 203.113593,96.0946446 C202.050284,95.4689995 199.636895,98.1289136 198.785818,98.6932371 Z" id="Path" fill="#A0616A" fill-rule="nonzero"></path>
                    <path d="M251.159315,97 L253.037291,99.1060172 C253.440459,99.5581396 253.844059,100.010787 254.211565,100.49131 C255.114029,101.712278 255.838006,103.051218 256.362436,104.469179 C256.770651,105.520751 257.109463,106.640857 256.966817,107.757456 C256.872111,108.329882 256.714627,108.890576 256.497112,109.429759 C256.152913,110.466751 255.726234,111.475584 255.221015,112.446943 C254.796076,113.184939 254.316103,113.89106 253.785025,114.559525 C252.33101,116.451365 250.740021,118.23789 249.024418,119.905221 C248.382387,120.529149 248.113137,121.537998 247.833657,122.381372 C247.31815,123.93697 246.091534,125.14856 244.90536,126.297475 C244.524178,126.692629 244.102886,127.048536 243.64804,127.359655 C242.9666,127.790505 242.170249,128.013151 241.359828,127.999399 C241.005057,128.00183 240.653788,127.930446 240.329156,127.789949 C239.51743,127.411542 239.104874,126.490068 239.020313,125.611829 C238.94475,124.814847 239.0808,124.012241 239.415203,123.282232 C240.492851,120.938705 243.260204,119.923173 245.216291,118.213252 C246.363308,117.210584 247.240445,115.951129 248.105536,114.705316 C248.693135,113.927481 249.183697,113.083341 249.566737,112.19094 C250.003584,111.046657 249.833542,109.692015 250.215196,108.528844 C250.376515,108.037177 250.663325,107.593235 250.836787,107.105564 C251.01025,106.617894 251.053921,106.038988 250.750479,105.616989 C250.521566,105.348788 250.229804,105.139095 249.900212,105.005895 C248.650624,104.383277 247.2511,103.582 247.011942,102.226492 C246.916614,101.474784 247.116695,100.715668 247.571453,100.10369 C248.024566,99.499877 248.55407,98.9550926 249.147218,98.4824506 C249.693728,98.0080403 250.612785,97.4744131 251.159315,97 Z" id="Path" fill="#A0616A" fill-rule="nonzero"></path>
                    <path d="M197.27585,101.806577 C196.959006,101.170364 196.562889,100.521269 195.923541,100.204928 C195.297128,99.9345687 194.586542,99.9316044 193.957869,100.196728 C193.337907,100.462422 192.757492,100.811302 192.232818,101.233634 L190.68615,102.366956 C190.335475,102.595612 190.025215,102.880292 189.767905,103.209493 C189.523843,103.608812 189.361332,104.052023 189.289657,104.513799 C189.020077,105.566901 188.937782,106.658743 189.046487,107.740018 C189.291935,109.473757 190.343486,110.987346 191.500913,112.307084 C192.224151,113.13175 193.117084,113.963968 194.217125,113.999143 C194.691969,114.014326 195.220061,113.828278 195.417552,113.398761 C195.485939,113.22847 195.52228,113.047141 195.524766,112.8638 C195.643595,110.929986 194.947668,109.041103 194.136128,107.279619 C193.877377,106.818382 193.724476,106.305957 193.688384,105.779073 C193.682565,105.690404 193.70576,105.602244 193.754506,105.527761 C193.824501,105.455343 193.918056,105.409937 194.018549,105.39961 C195.12929,105.181217 197.042491,106.038947 197.821697,104.812827 C198.32684,104.017962 197.634821,102.527386 197.27585,101.806577 Z" id="Path" fill="#A0616A" fill-rule="nonzero"></path>
                    <path d="M220.088383,73.1528913 C220.073813,72.9837674 220.096734,72.813317 220.155235,72.6557465 C220.329406,72.3218009 220.784205,72.4126875 221.127279,72.5064776 C222.50697,72.8836577 223.960725,72.5422357 225.381267,72.6303514 C226.801809,72.7184672 228.401948,73.4885287 228.687574,75 C229.71866,74.2073721 230.607481,73.2170925 231.310235,72.0779624 C231.70448,71.4382146 232.048122,70.7054307 231.99445,69.9381937 C231.917039,68.8315712 231.060783,68.003955 230.26795,67.3021276 L227.904561,65.2100251 C227.5944,64.9009035 227.236119,64.6539047 226.846377,64.4805121 C226.300619,64.2782783 225.705464,64.3746303 225.12872,64.3750314 C223.408333,64.3762289 221.574068,63.5272426 220.043995,64.3800957 C219.404848,64.7363519 218.923777,65.3468521 218.460023,65.9421339 L216.350666,68.6496653 C216.191885,68.8222201 216.0759,69.0354929 216.013487,69.26967 C215.953473,69.6001611 216.109994,69.9263224 216.164617,70.2579123 C216.264252,70.8627748 216.023997,71.5083157 216.208705,72.0891841 C216.515351,73.053503 217.595124,73.1900079 218.255253,73.7428433 C218.501283,73.9488844 218.886878,74.6471727 219.180015,74.6386427 C219.708904,74.6232577 220.07463,73.5984721 220.088383,73.1528913 Z" id="Path" fill="#3F3D56" fill-rule="nonzero"></path>
                    <path d="M205.586061,92.2629078 C205.315301,92.440119 205.07764,92.664633 204.884107,92.92603 C204.638228,93.3032819 204.588251,93.7795392 204.377047,94.1778308 C203.925082,95.0301196 202.867958,95.3333294 202.20849,96.0325423 C202.103722,96.1286818 202.030919,96.2554314 202.000115,96.3953206 C201.996935,96.5850835 202.059647,96.7699325 202.177267,96.9174917 L205.35739,101.990861 C206.416218,102.085468 207.432007,101.412289 208.491285,101.50165 C208.886797,101.535017 209.291516,101.673645 209.670791,101.555041 C209.942326,101.432862 210.196818,101.274918 210.427701,101.085287 C211.059665,100.679788 211.901357,100.632541 212.431558,100.09755 C212.94039,99.5841183 213.005313,98.7808139 212.999246,98.0526643 C213.007748,97.4203303 212.944312,96.7891129 212.810198,96.1715383 C212.342005,94.2241829 210.874354,92.7297776 209.954279,91.0047822 C209.506356,90.164975 209.262618,89.6733493 208.314542,90.2499819 C207.361547,90.8295958 206.482939,91.5973396 205.586061,92.2629078 Z" id="Path" fill="#65DFFF" fill-rule="nonzero"></path>
                    <path d="M245.612582,89.8226169 C246.226451,90.2417931 246.779869,90.7515325 247.255877,91.3362144 C247.753499,92.010935 248.035339,92.8366832 248.513354,93.5269012 C248.97669,94.1959234 249.607403,94.7140716 250.132957,95.330132 C250.929992,96.2644239 251.469856,97.4042526 252,98.5287879 C250.705122,100.304633 249.293213,101.982635 247.774697,103.550404 C247.605677,103.759843 247.382975,103.913788 247.133111,103.993906 C246.787898,104.032449 246.4473,103.886434 246.226113,103.605072 C245.990862,103.345535 245.824126,103.025571 245.599225,102.756078 C245.068414,102.18027 244.361001,101.820492 243.602184,101.740419 C242.850107,101.663977 242.093309,101.653018 241.339516,101.707653 C241.174017,101.72704 241.006657,101.697464 240.856276,101.622255 C240.744464,101.541117 240.653806,101.431769 240.592608,101.30423 C239.708217,99.7217376 239.992683,97.7348754 240.3047,95.9289128 L241.020667,91.7848866 C241.124398,90.993439 241.324673,90.2193442 241.616543,89.4817203 C241.887689,88.8722885 242.494125,87.8388385 243.239748,88.0212829 C243.991396,88.2051881 244.980219,89.3443214 245.612582,89.8226169 Z" id="Path" fill="#65DFFF" fill-rule="nonzero"></path>
                    <circle id="Oval" fill="#FFFFFF" fill-rule="nonzero" cx="112" cy="105" r="11"></circle>
                    <path d="M112,92 C104.820298,92 99,97.8202983 99,105 C99,112.179702 104.820298,118 112,118 C119.179702,118 125,112.179702 125,105 C124.97901,97.8290107 119.170989,92.0209903 112,92 Z M109.331251,111.931255 L102.668751,105.268747 L104.537499,103.4 L109.337504,108.2 L119.468749,98.0687555 L121.337499,99.9375055 L109.331249,111.931255 L109.331251,111.931255 Z" id="Shape" fill="#57B894" fill-rule="nonzero"></path>
                </g>
                <g id="undraw_reminders_697p" transform="translate(455.500000, 120.500000) scale(-1, 1) translate(-455.500000, -120.500000) translate(295.000000, 6.000000)">
                    <path d="M157.302843,0 L69.3326316,47.5146713 C73.4282102,54.5457071 73.3644274,63.2415938 69.1661497,70.2121399 C64.967872,77.1826859 57.2996925,81.3244443 49.1511392,81.022703 C41.0025859,80.7209616 33.6635859,76.0234866 29.9953329,68.7616425 L0,84.9627889 L77.6971705,228 L235,143.037231 L157.302843,0 Z" id="Path" fill="#F2F2F2" fill-rule="nonzero"></path>
                    <polygon id="Path" fill="#6C63FF" fill-rule="nonzero" points="45.1846423 112 109 122.06695 103.815358 154.347763 53.9596621 146.482855 51.9494142 159 47.8622804 145.521254 40 144.280814"></polygon>
                    <polygon id="Path" fill="#000000" fill-rule="nonzero" opacity="0.2" points="45.1846423 112 109 122.06695 103.815358 154.347763 53.9596621 146.482855 51.9494142 159 47.8622804 145.521254 40 144.280814"></polygon>
                    <polygon id="Rectangle" fill="#F2F2F2" fill-rule="nonzero" transform="translate(76.173534, 126.181239) rotate(-170.955820) translate(-76.173534, -126.181239) " points="56.7457691 124.515753 95.6023569 124.503492 95.6012999 127.846726 56.7447121 127.858987"></polygon>
                    <polygon id="Rectangle" fill="#F2F2F2" fill-rule="nonzero" transform="translate(75.120360, 132.784243) rotate(-170.955820) translate(-75.120360, -132.784243) " points="55.6925942 131.118756 94.549182 131.106496 94.5481251 134.449729 55.6915373 134.46199"></polygon>
                    <polygon id="Rectangle" fill="#F2F2F2" fill-rule="nonzero" transform="translate(74.067185, 139.387249) rotate(-170.955820) translate(-74.067185, -139.387249) " points="54.6394194 137.721763 93.4960072 137.709502 93.4949503 141.052736 54.6383625 141.064997"></polygon>
                    <polygon id="Path" fill="#6C63FF" fill-rule="nonzero" points="42 158.630079 100.980044 133 114 163.247905 67.9217671 183.271488 72.9701711 195 62.2866586 185.720295 55.0199557 188.877984"></polygon>
                    <polygon id="Rectangle" fill="#F2F2F2" fill-rule="nonzero" transform="translate(74.963588, 154.169188) rotate(156.611920) translate(-74.963588, -154.169188) " points="55.5393005 152.482731 94.385395 152.511506 94.3878756 155.855645 55.5417811 155.82687"></polygon>
                    <polygon id="Rectangle" fill="#F2F2F2" fill-rule="nonzero" transform="translate(77.623099, 160.305969) rotate(156.611920) translate(-77.623099, -160.305969) " points="58.1988112 158.619513 97.0449057 158.648287 97.0473863 161.992426 58.2012917 161.963651"></polygon>
                    <polygon id="Rectangle" fill="#F2F2F2" fill-rule="nonzero" transform="translate(80.281658, 166.442554) rotate(156.611823) translate(-80.281658, -166.442554) " points="60.857298 164.756091 99.7035382 164.784866 99.7060188 168.129017 60.8597786 168.100242"></polygon>
                    <polygon id="Path" fill="#6C63FF" fill-rule="nonzero" points="51 98.6300788 109.980044 73 123 103.247905 76.9217671 123.271488 81.9701711 135 71.2866586 125.720295 64.0199557 128.877984"></polygon>
                    <polygon id="Rectangle" fill="#F2F2F2" fill-rule="nonzero" transform="translate(84.008244, 95.331235) rotate(156.611920) translate(-84.008244, -95.331235) " points="64.5839565 93.6447786 103.430051 93.6735534 103.432532 97.0176919 64.586437 96.9889172"></polygon>
                    <polygon id="Rectangle" fill="#F2F2F2" fill-rule="nonzero" transform="translate(86.667755, 101.468017) rotate(156.611920) translate(-86.667755, -101.468017) " points="67.2434671 99.7815599 106.089562 99.8103346 106.092042 103.154473 67.2459477 103.125698"></polygon>
                    <polygon id="Rectangle" fill="#F2F2F2" fill-rule="nonzero" transform="translate(89.326469, 107.604788) rotate(156.611823) translate(-89.326469, -107.604788) " points="69.9021087 105.918325 108.748349 105.9471 108.75083 109.291251 69.9045893 109.262476"></polygon>
                    <path d="M55,26 L291.346652,36.0994993 C291.346652,36.0994993 328.381031,153.927023 300.773585,204.424543 L76.8839643,229 C76.8839643,229 124.018608,141.470971 55,26 Z" id="Path" fill="#3F3D56" fill-rule="nonzero"></path>
                    <path d="M91,81 L290,77" id="Path" stroke="#2F2E41" stroke-width="2"></path>
                    <path d="M96,97 L297,93" id="Path" stroke="#2F2E41" stroke-width="2"></path>
                    <path d="M60,35 L293,43" id="Path" stroke="#2F2E41" stroke-width="2"></path>
                    <path d="M236,155.001651 C236,155.499656 235.996638,155.997661 235.98319,156.488981 L235.98319,156.492323 C235.963019,157.708926 235.915952,158.905474 235.838628,160.095338 C235.757943,161.372102 235.64812,162.632161 235.509161,163.875516 C234.147588,176.031513 230.039334,186.623307 224.273659,193.86276 C221.005883,197.970464 217.203564,201.001944 213.065053,202.632993 C211.801314,203.133319 210.488734,203.501835 209.148428,203.732614 C208.107969,203.910781 207.054099,204 205.998319,204 C201.046226,204 196.373172,202.041387 192.258195,198.565396 C184.307279,191.864056 178.423937,179.524231 176.59842,164.781283 L176.59842,164.77794 C176.289124,162.284574 176.094133,159.727703 176.030257,157.114014 C176.010086,156.41547 176,155.711356 176,155.001671 C176,127.938952 189.430829,106 205.998319,106 C209.921668,106 213.670197,107.229972 217.106068,109.469322 C217.206942,109.532826 217.307783,109.599673 217.405278,109.669861 C219.295647,110.954513 221.027691,112.455469 222.565809,114.141878 C223.554525,115.218399 224.479488,116.351124 225.336023,117.534327 C226.434376,119.054842 227.435941,120.642201 228.334846,122.287098 C229.087914,123.657447 229.797277,125.101327 230.449487,126.60871 L230.449487,126.612053 C231.128593,128.162887 231.750546,129.778339 232.315347,131.458409 L232.315347,131.461751 C234.019707,136.602043 235.131771,141.91803 235.63019,147.307663 C235.875613,149.814392 236,152.384632 236,155.001651 Z" id="Path" fill="#000000" fill-rule="nonzero" opacity="0.2"></path>
                    <path d="M72.9269273,30.2063356 C73.1341539,31.2219634 72.8854755,32.4000705 72.3725378,32.8368507 C71.8607568,33.2726499 71.2793911,32.805238 71.0730071,31.7937393 C70.8666231,30.7822405 71.1126816,29.6063574 71.6236335,29.1664432 C72.1357314,28.7255304 72.7197116,29.1907078 72.9269273,30.2063356 Z" id="Path" fill="#6C63FF" fill-rule="nonzero"></path>
                    <path d="M78.9269286,30.2063287 C79.1341522,31.2219583 78.8854768,32.400071 78.3725396,32.8368484 C77.8607593,33.2726519 77.2793942,32.8052392 77.0730078,31.7937351 C76.8666213,30.7822311 77.112685,29.6063494 77.6236335,29.166438 C78.1357471,28.725535 78.7197022,29.1907097 78.9269286,30.2063287 Z" id="Path" fill="#6C63FF" fill-rule="nonzero"></path>
                    <path d="M67.9269286,30.2063282 C68.1341522,31.2219575 67.8854768,32.4000697 67.3725371,32.8368505 C66.8607568,33.2726504 66.2793945,32.8052378 66.0730081,31.7937341 C65.8666217,30.7822304 66.1126826,29.6063492 66.6236338,29.1664379 C67.135731,28.7255351 67.7197023,29.1907096 67.9269286,30.2063282 Z" id="Path" fill="#6C63FF" fill-rule="nonzero"></path>
                    <path d="M235.331897,126.660697 L237.093169,131.854155 L239,132 L237.285762,119.053385 C237.92267,110.876328 234.478025,103.6624 226.226193,103.03125 L226.226108,103.03125 C220.464412,102.590601 215.433142,106.861831 214.988415,112.571338 L214.015237,125.065462 C213.800407,127.823444 215.882468,130.231809 218.665656,130.444701 L233.460066,131.576265 L235.331897,126.660697 Z" id="Path" fill="#2F2E41" fill-rule="nonzero"></path>
                    <path d="M237.909918,156 C237.909918,156 239.442117,160.189892 242.068747,160.851456 C244.695376,161.513019 264.176211,166.143953 264.176211,166.143953 C264.176211,166.143953 281.249303,166.584994 275.996044,170.333844 C270.742785,174.082695 262.20624,170.333844 262.20624,170.333844 C262.20624,170.333844 237.253259,167.246554 235.283289,163.938745 C233.986465,161.687608 232.887837,159.326365 232,156.882083 L237.909918,156 Z" id="Path" fill="#FBBEBE" fill-rule="nonzero"></path>
                    <path d="M229.412563,137 C229.412563,137 242.466706,157.794296 240.863567,158.241485 C239.260428,158.688674 224.374121,163.384162 223.687059,161.595406 C223,159.806649 223,151.533647 223,151.533647 L229.412563,137 Z" id="Path" fill="#FF6584" fill-rule="nonzero"></path>
                    <path d="M229.412563,137 C229.412563,137 242.466706,157.794296 240.863567,158.241485 C239.260428,158.688674 224.374121,163.384162 223.687059,161.595406 C223,159.806649 223,151.533647 223,151.533647 L229.412563,137 Z" id="Path" fill="#000000" fill-rule="nonzero" opacity="0.15"></path>
                    <path d="M194.792531,131 L175.907071,156.626435 C175.907071,156.626435 163.348979,167.57252 168.055569,168.88711 C172.762159,170.2017 180.232621,159.601273 180.232621,159.601273 L202,132.775486 L194.792531,131 Z" id="Path" fill="#FBBEBE" fill-rule="nonzero"></path>
                    <path d="M233,121.25368 C233,121.25368 227.387756,129.600751 227.836736,131.577691 C227.836736,131.577691 227.387756,132.89565 228.061224,133.774289 C228.734692,134.652928 228.510203,139.924763 228.510203,139.924763 L226.265305,143 L223.346939,133.554628 L222,123.450277 C222,123.450277 225.030612,119.386574 224.581632,117.409634 C224.132653,115.432694 233,121.25368 233,121.25368 Z" id="Path" fill="#FBBEBE" fill-rule="nonzero"></path>
                    <path d="M224,194.073479 C220.75928,198.204767 216.988442,201.253651 212.884196,202.894065 C211.630921,203.397263 210.329209,203.767896 209,204 C209.70349,188.26478 210.51367,174.2305 211.083796,172.990125 C212.40409,170.109316 215.921538,169 215.921538,169 C215.921538,169 216.268282,169.93786 216.848411,171.568189 C218.352075,175.81715 221.426105,184.772204 224,194.073479 Z" id="Path" fill="#FF6584" fill-rule="nonzero"></path>
                    <path d="M224,194.073479 C220.75928,198.204767 216.988442,201.253651 212.884196,202.894065 C211.630921,203.397263 210.329209,203.767896 209,204 C209.70349,188.26478 210.51367,174.2305 211.083796,172.990125 C212.40409,170.109316 215.921538,169 215.921538,169 C215.921538,169 216.268282,169.93786 216.848411,171.568189 C218.352075,175.81715 221.426105,184.772204 224,194.073479 Z" id="Path" fill="#000000" fill-rule="nonzero" opacity="0.15"></path>
                    <circle id="Oval" fill="#FBBEBE" fill-rule="nonzero" cx="230" cy="115" r="8"></circle>
                    <path d="M227.354317,152.252674 C225.82788,153.701319 224.70652,154.769444 223.883039,155.583889 C222.209337,157.232788 221.760785,157.823614 221.6135,158.414421 C221.392571,159.295624 220.291275,159.295624 220.291275,159.295624 L217.248486,171.528995 L213.887693,185.044116 C213.887693,185.044116 213.670111,192.554371 213.268423,202.634802 C212.010137,203.134466 210.703221,203.502494 209.368698,203.732968 C208.332728,203.910899 207.283406,204 206.232181,204 C201.301456,204 196.648565,202.043979 192.551343,198.572589 C192.608249,185.681653 192.477701,172.500321 192.477701,172.500321 C192.477701,172.500321 188.94619,166.779176 201.087222,155.553848 C201.087222,155.553848 203.001937,149.986246 204.9836,144.395279 C206.975305,138.760918 209.033958,133.103193 209.254886,133.103193 C209.402172,133.103193 210.456604,131.758023 211.795565,129.965575 C212.970504,128.396767 214.366371,126.480817 215.558047,124.821885 C217.094505,122.698987 218.302918,121 218.302918,121 C218.302918,121 221.928156,121 223.481351,122.845854 C223.736808,123.141919 223.928254,123.487361 224.043714,123.860573 C224.418624,125.078903 225.275559,128.052964 226.135842,131.070417 C227.290696,135.132631 228.455592,139.26494 228.455592,139.26494 L229.048083,134.298158 C229.048083,134.298158 230.885807,136.844969 230.885807,138.824338 C230.885807,138.931151 230.889154,139.051315 230.892485,139.188168 C230.98959,141.561419 231.736054,148.086993 227.354317,152.252674 Z" id="Path" fill="#FF6584" fill-rule="nonzero"></path>
                    <path d="M220,122.734675 L217.335199,121 C217.335199,121 206.231864,127.505032 198.459526,127.938701 C190.687188,128.37237 190.909257,132.709058 194.018191,135.744739 C197.127126,138.780421 209.340796,149.188472 209.784929,146.586459 C210.229063,143.984446 220,122.734675 220,122.734675 Z" id="Path" fill="#FF6584" fill-rule="nonzero"></path>
                    <path d="M235.280154,103.990023 C233.463156,103.397407 229.067946,103.08195 228.424949,103.033957 C225.296506,102.800434 222.20027,103.778316 219.817381,105.752478 C217.434491,107.72664 215.960143,110.535369 215.718676,113.560775 L210,129.24066 L218.643811,129.885858 L220.722468,124.059377 L222.525213,130.175577 L226.876556,130.500374 L227.535782,126.955105 L228.723309,130.63822 L233.570116,131 C230.574109,122.786211 229.22098,115.402046 234.346722,111.289371 C237.533256,111.953952 240.315919,111.322541 240.893275,109.667095 C241.558432,107.759777 239.045373,105.218076 235.280154,103.990023 Z" id="Path" fill="#2F2E41" fill-rule="nonzero"></path>
                    <polygon id="Path" fill="#6C63FF" fill-rule="nonzero" points="257 123 321 123 321 155.426471 271 155.426471 271 168 264.885 155.426471 257 155.426471"></polygon>
                    <rect id="Rectangle" fill="#F2F2F2" fill-rule="nonzero" transform="translate(289.500000, 133.000000) rotate(-180.000000) translate(-289.500000, -133.000000) " x="270" y="131" width="39" height="4"></rect>
                    <rect id="Rectangle" fill="#F2F2F2" fill-rule="nonzero" transform="translate(289.500000, 139.000000) rotate(-180.000000) translate(-289.500000, -139.000000) " x="270" y="137" width="39" height="4"></rect>
                    <rect id="Rectangle" fill="#F2F2F2" fill-rule="nonzero" transform="translate(289.500000, 146.000000) rotate(-180.000000) translate(-289.500000, -146.000000) " x="270" y="144" width="39" height="4"></rect>
                    <polygon id="Rectangle" fill="#6C63FF" fill-rule="nonzero" opacity="0.2" transform="translate(193.596029, 57.995421) rotate(14.956540) translate(-193.596029, -57.995421) " points="185.226721 49.6408669 201.973824 49.6323788 201.965336 66.3499747 185.218233 66.3584629"></polygon>
                    <circle id="Oval" stroke="#3F3D56" stroke-width="2" cx="198" cy="65" r="5"></circle>
                </g>
            </g>
        </g>
    </g>
</svg>